<svg width="1154" height="287" viewBox="0 0 1154 287" xmlns="http://www.w3.org/2000/svg"><g fill="#322C2A"><path d="M203.43 245.592a116.595 116.595 0 0 1-4.644-15.659c-2.103-8.544-4.064-16.653-10.688-25.005-6.381-8.037-15.505-13.507-24.304-18.814-12.061-7.266-23.481-14.137-26.875-26.69-1.28-4.81-1.148-10.472-1.016-15.942.173-5.917.315-12.056-1.362-17.13-3.76-11.265-11.481-18.267-21.195-19.282-4.653-.487-8.85 1.634-13.28 3.918-3.434 1.725-6.96 3.551-10.892 4.16-4.582.69-8.86-.862-13.391-2.496-6.38-2.324-13.016-4.74-20.463-.163-7.926 4.922-10.791 15.466-8.617 32.383v.132c.905 2.415 1.768 5.003 2.652 7.51 2.977 8.595 6.036 17.495 11.42 24.69a49.328 49.328 0 0 0 6.23 6.363 69.049 69.049 0 0 1 6.705 6.748 85.041 85.041 0 0 1 7.64 11.63 94.843 94.843 0 0 0 8.282 12.604c5.933 7.195 14.672 15.963 26.051 26.07a691.213 691.213 0 0 1 5.67 5.135c8.454 7.773 16.43 15.08 25.147 18.693a61.87 61.87 0 0 0 11.025 2.7c2.794.527 5.7 1.085 8.31 1.775 2.866.751 5.965 1.746 9.247 2.811 7.935 2.547 16.48 5.267 23.37 5.267 5.273 0 9.53-1.614 11.755-6.18 2.225-4.567-.6-11.01-3.932-18.49-.965-2.192-1.961-4.455-2.845-6.738Zm5.7 24.72c-4.684 9.59-20.047 4.648-33.662.285-3.282-1.015-6.432-2.03-9.287-2.832-2.662-.69-5.568-1.238-8.433-1.776-4.115-.77-8.027-1.502-10.79-2.658-8.474-3.491-16.41-10.757-24.772-18.44-1.88-1.735-3.79-3.46-5.7-5.165-11.288-10.047-20.026-18.774-25.9-25.928a92.884 92.884 0 0 1-8.128-12.432 83.946 83.946 0 0 0-7.783-11.802 73.466 73.466 0 0 0-6.807-6.84 51.684 51.684 0 0 1-6.097-6.22c-5.273-7.104-8.31-15.862-11.268-24.356-.863-2.486-1.727-5.074-2.631-7.469-2.083-16.318.569-26.507 8.128-31.134 6.99-4.272 13.036-2.03 19.448.264 4.48 1.613 9.144 3.298 13.99 2.547 4.065-.62 7.743-2.486 11.248-4.293 4.278-2.151 8.291-4.232 12.61-3.795 13.107 1.36 18.451 13.375 20.178 18.5 1.626 4.85 1.474 10.899 1.311 16.714-.132 5.56-.284 11.325 1.016 16.237 3.526 13.05 15.12 20.042 27.434 27.4 8.717 5.226 17.74 10.655 24.01 18.56 6.43 8.119 8.3 15.72 10.444 24.538a117.608 117.608 0 0 0 4.684 15.79c.884 2.304 1.91 4.588 2.855 6.78 3.018 6.92 5.893 13.426 3.902 17.525Z"/><path d="M172.533 206.375c-5.077-4.418-12.186-6.107-18.482-7.593a51.308 51.308 0 0 1-10.054-3.054c-7.25-3.532-10.978-9.456-14.583-15.146-3.047-4.795-5.88-9.324-10.531-11.777-4.255-2.24-9.14-2.087-13.852-1.944-3.768.101-7.332.213-10.551-.805-4.56-4.173-6.997-10.8-9.333-17.192-3.9-10.688-7.89-21.732-22.047-21.864h-.061l-.112.05a9.013 9.013 0 0 0-5.514 4.571v.143c-2.874 14.942 9.84 28.134 20.057 38.73 2.03 2.118 3.97 4.072 5.676 6.006 6.012 6.749 9.333 14.098 12.522 21.192 2.864 6.332 5.565 12.307 9.993 17.763 3.838 4.733 8.358 8.336 13.12 12.113 2.285 1.801 4.631 3.664 7.028 5.73a91.11 91.11 0 0 1 7.383 7.461 74.078 74.078 0 0 0 9.952 9.6c5.85 4.417 16.797 8.641 26.353 8.641 5.85 0 11.17-1.598 14.492-5.68 9.23-11.512 1.32-35.86-11.456-46.945Zm10.42 46.233c-7.556 9.374-29.014 4.54-39.23-3.176a75.633 75.633 0 0 1-9.77-9.416 83.069 83.069 0 0 0-7.464-7.573 293.445 293.445 0 0 0-7.108-5.781c-4.713-3.756-9.14-7.278-12.938-11.93-4.347-5.334-7.007-11.197-9.82-17.477-3.24-7.197-6.601-14.617-12.745-21.529-1.676-1.883-3.656-3.888-5.698-6.036-9.992-10.372-22.443-23.279-19.741-37.61a7.763 7.763 0 0 1 4.691-3.848c13.202.163 16.96 10.331 20.88 21.04 2.417 6.616 4.905 13.395 9.749 17.772l.203.112c3.432 1.13 7.312 1.018 11.059.885 4.57-.132 9.292-.285 13.283 1.843 4.387 2.29 7.109 6.687 10.094 11.329 3.535 5.598 7.495 11.91 15.06 15.594 2.814 1.384 6.46 2.219 10.298 3.155 6.165 1.466 13.121 3.115 17.975 7.33 12.42 10.707 20.179 34.251 11.222 45.316Zm76.106-97.74-.071-.153-.131-.092c-8.803-5.806-21.376-4.54-30.593 3.123-8.51 7.06-11.42 17.346-7.63 26.897 1.697 11.449 7.893 22.357 18.02 22.357.675 0 1.35-.038 2.02-.112l.203-.061c8.56-4.347 9.864-13.368 11.117-22.072a63.205 63.205 0 0 1 2.113-10.734 39.6 39.6 0 0 1 2.738-5.857c2.274-4.235 4.457-8.316 2.214-13.296Zm-3.285 12.714a37.223 37.223 0 0 0-2.83 6.061 64.006 64.006 0 0 0-2.183 10.919c-1.182 8.387-2.425 17.05-10.37 21.152-11.996 1.53-17.332-12.653-18.585-21.285l-.05-.163c-4.346-10.847.889-20.337 7.236-25.612a27.525 27.525 0 0 1 17.343-6.46 21.254 21.254 0 0 1 11.723 3.327c1.9 4.327-.04 7.95-2.284 12.061Z"/><path d="M217.327 246.198c-3.653-5.75-7.419-11.725-8.19-19.185-.315-3.003.355-6.107 1.015-9.16a36.511 36.511 0 0 0 1.086-7.776c-.122-11.806-3.167-20.121-10.15-27.846l-.111-.132-.162-.051a34.416 34.416 0 0 0-8.962-1.018 28.717 28.717 0 0 1-7.866-.875c-9.134-2.687-30.346-14.249-33.868-20.05-3.897-6.422-3.217-13.862-2.476-21.7.639-7.174 1.33-14.594-1.817-21.26-4.435-9.323-14.646-17.017-26.053-19.562-5.38-1.18-11.631-.356-18.888.6-3.877.51-7.906 1.018-12.118 1.283a76.183 76.183 0 0 1-10.677-.62c-8.282-.795-17.67-1.731-23.922 1.129-15.945 7.358-17.122 30.787-16.148 52.73.092 2.036.264 4.153.467 6.178.64 7.125 1.31 14.575-2.395 19.277-1.898 2.422-5.4 3.96-8.79 5.465-6.424 2.84-13.69 6.046-10.545 16.081l.112.132c2.03 3.054 4.253 4.662 6.668 4.998 4.06.56 7.927-2.687 12.027-6.107 3.654-3.053 7.42-6.107 11.428-6.748 11.631-1.78 19.203 8.478 26.54 18.412 2.03 2.748 4.141 5.597 6.263 8.142a89.843 89.843 0 0 0 10.149 9.567 87.706 87.706 0 0 1 8.779 8.203c4.293 4.753 7.46 10.34 10.545 15.765 3.207 5.67 6.262 11.023 10.15 14.483 4.14 3.705 16.99 8.906 25.444 10.33a79.92 79.92 0 0 0 11.164.866c5.166.193 10.017.356 14.747 1.801 5.744 1.73 10.596 4.794 15.335 7.745 5.075 3.227 9.947 6.27 15.437 7.359 1.204.234 2.428.35 3.654.346a18.247 18.247 0 0 0 13.448-6.107c6.313-6.676 8.88-17.607 6.445-27.205-1.624-5.821-4.75-10.737-7.765-15.49Zm.315 41.85a16.911 16.911 0 0 1-16.016 5.334c-5.257-1.018-10.017-4-15.061-7.125-4.77-2.972-9.703-6.106-15.569-7.887-4.882-1.486-10.058-1.66-15.072-1.843a83.502 83.502 0 0 1-10.981-.844c-8.302-1.395-20.816-6.463-24.876-10.056-3.694-3.338-6.709-8.6-9.896-14.198-3.186-5.598-6.312-11.124-10.656-15.969a90.295 90.295 0 0 0-8.922-8.305 85.8 85.8 0 0 1-9.966-9.445c-2.131-2.483-4.212-5.302-6.252-8.06-6.932-9.415-14.067-19.104-24.805-19.104-.941 0-1.881.076-2.811.224-4.364.692-8.262 3.888-12.027 7.023-3.766 3.134-7.571 6.31-11.164 5.811-2.03-.285-3.918-1.71-5.806-4.397-2.75-8.976 3.41-11.673 9.947-14.594 3.501-1.537 7.155-3.135 9.235-5.802 3.99-5.089 3.299-12.722 2.64-20.1a117.231 117.231 0 0 1-.468-6.107c-.954-21.546.153-44.558 15.458-51.601 5.937-2.748 15.224-1.842 23.343-1.018 3.599.484 7.229.699 10.86.641 4.242-.264 8.282-.804 12.179-1.313 7.104-.956 13.295-1.75 18.472-.62 11.032 2.462 20.958 9.913 25.23 18.92 3.045 6.381 2.325 13.618 1.706 20.66-.731 7.685-1.462 15.644 2.659 22.391 3.846 6.331 26.094 18.127 34.507 20.59 2.675.665 5.426.97 8.18.906a33.889 33.889 0 0 1 8.506.956c6.708 7.47 9.652 15.532 9.743 26.971a34.991 34.991 0 0 1-1.015 7.501c-.64 3.155-1.33 6.382-1.015 9.557.802 7.745 4.649 13.832 8.353 19.694 2.984 4.672 6.09 9.516 7.48 15.104 2.355 9.18-.071 19.663-6.12 26.106Z"/><path d="m137.055 214.606-.263.112-.092.244c-3.296 9.308 5.579 22.582 15.387 27.79a17.012 17.012 0 0 0 7.992 2.248 11.15 11.15 0 0 0 9.25-4.883c3.742-5.157 3.54-11.189-.528-16.61-5.913-7.792-19.676-13.407-31.746-8.9Zm31.34 24.8c-4.868 6.703-11.957 4.322-15.72 2.329-9.128-4.862-17.75-17.516-14.92-26.111 11.471-4.15 24.525 1.2 30.113 8.595 3.783 5.035 3.966 10.436.528 15.186Zm986.409 27.148c-17.78 3.806-28.403 20.132-25.254 38.774a31.706 31.706 0 0 0 5.112 13.02c4.867 6.448 15.5 12.805 26.338 16.652v-1.316c-10.51-3.786-20.878-9.97-25.346-16.03a30.494 30.494 0 0 1-4.959-12.469c-3.067-18.02 7.157-33.763 24.344-37.437a27.106 27.106 0 0 1 5.583-.581h.378v-1.153c-2.08-.068-4.16.114-6.196.54Z"/><path d="M1151.99 282.231c-5.085 5.847-6.407 15.936-3.397 26.318A25.714 25.714 0 0 0 1160.96 324v-1.343a24.685 24.685 0 0 1-11.186-14.411c-2.888-10.008-1.688-19.653 3.153-25.247a15.123 15.123 0 0 1 8.074-4.747V277a16.57 16.57 0 0 0-9.01 5.231Zm-10.191 60.089h-.142a213.13 213.13 0 0 0-24.743-4.695 19.58 19.58 0 0 0-5.074.466c-2.456.415-5.227.9-7.845.283-4.476-1.012-6.577-3.309-9.256-6.233a42.702 42.702 0 0 0-5.288-5.06l-.355-.283-.375.253c-9.215 6.628-13.711 6.405-20.49 6.072a74.942 74.942 0 0 0-4.496-.193h-2.08c-8.272-.141-14.21-.273-19.852 3.238-6.038 3.775-10.96 9.35-15.74 14.733-9.023 10.18-17.568 19.812-33.136 18.578-10.748-.87-18.095-5.262-26.6-10.959-9.195-6.142-18.268-10.179-31.299-13.893a63.97 63.97 0 0 0-3.937-.374c-.873 0-1.705-.131-2.619-.223l-1.664-.131a36.128 36.128 0 0 1-5.551-.79 11.71 11.71 0 0 0-1.218-.273c-1.573-.344-3.522-.769-4.344-1.831-3.988-5.06-11.59-9.36-17.12-12.476a85.856 85.856 0 0 1-3.167-1.801c-5.694-3.41-7.845-8.42-10.149-13.762-1.796-4.22-3.633-8.55-7.378-12.041-2.791-2.58-5.937-3.865-8.951-5.14a29.9 29.9 0 0 1-7.104-3.694c-13.996-10.796-15.325-24.001-3.989-40.474 8.972-13.033 16.187-20.764 40.331-18.265h.426l.153-.394a7.377 7.377 0 0 0-.183-5.657l-.152-.192-1.015-.89a13.316 13.316 0 0 0-1.928-1.61l-.203-.13h-.193c-3.275.282-6.57.23-9.834-.153-3.654-.333-7.104-.617-10.697.243-11.762 2.803-27.797 22.545-31.735 30.012-9.55 17.971.325 38.532 13.528 50.037a29.153 29.153 0 0 0 4.06 2.712c2.527 1.528 5.165 3.096 7.104 5.99a40.412 40.412 0 0 1 5.44 12.679c1.197 4.23 2.242 7.903 5.876 11.525a34.62 34.62 0 0 0 8.453 5.849c3.045 1.588 6.222 3.035 9.287 4.371 3.359 1.498 6.82 3.036 10.148 4.837a58.391 58.391 0 0 1 8.373 5.767c2.395 1.872 5.318 2.095 8.17 2.338.629 0 1.268.111 1.908.182 1.842.159 3.692.223 5.54.192 1.412 0 2.873 0 4.273.091a21.28 21.28 0 0 1 6.09 1.74c.538.183 1.015.405 1.532.557 5.4 2.024 10.494 4.432 16.167 7.174l2.7 1.326c9.55 4.634 19.404 9.471 29.938 11.768a51.034 51.034 0 0 0 19.283.668 46.172 46.172 0 0 0 19.435-7.873 22.962 22.962 0 0 0 4.699-5.23 25.722 25.722 0 0 1 4.14-4.838c6.556-5.717 13.68-7.589 24.713-6.486 1.735.172 3.521.375 5.317.547 10.636 1.173 21.658 2.357 31.462.354 3.39-.708 6.647-1.68 9.773-2.631 7.104-2.165 13.772-4.22 21.9-2.975 6.973 1.012 13.468 3.886 19.75 6.628 3.106 1.336 6.09 2.691 9.134 3.764v-1.275c-2.852-1.012-5.754-2.297-8.677-3.582-6.363-2.752-12.94-5.646-20.095-6.688-8.352-1.275-15.223.82-22.408 3.035-3.106 1.012-6.313 1.923-9.662 2.631-9.63 2.024-20.53.79-31.095-.354-1.817-.202-3.593-.405-5.339-.577-11.224-1.103-18.897.9-25.605 6.76a29.276 29.276 0 0 0-4.333 5.059 22.698 22.698 0 0 1-4.435 4.968 45.43 45.43 0 0 1-18.918 7.68 49.558 49.558 0 0 1-18.775-.668c-10.412-2.266-20.226-7.032-29.685-11.697l-2.7-1.305a177.864 177.864 0 0 0-16.237-7.286c-.487-.162-1.015-.374-1.512-.556a21.656 21.656 0 0 0-6.425-1.811c-1.481-.112-2.963-.112-4.394-.092a50.893 50.893 0 0 1-5.389-.192l-1.949-.182c-2.79-.243-5.43-.435-7.55-2.115a60.899 60.899 0 0 0-8.525-5.858c-3.309-1.802-6.8-3.38-10.149-4.878-3.044-1.345-6.2-2.762-9.215-4.35a33.697 33.697 0 0 1-8.18-5.606c-3.43-3.42-4.425-6.952-5.571-11.05a41.423 41.423 0 0 0-5.603-12.982c-2.09-3.127-4.942-4.827-7.469-6.355a25.375 25.375 0 0 1-3.836-2.61c-12.869-11.192-22.5-31.176-13.265-48.57 3.897-7.326 19.537-26.693 30.964-29.415 3.44-.82 6.78-.547 10.321-.223a49.62 49.62 0 0 0 9.845.243c.477.354 1.015.86 1.583 1.366.289.29.594.563.913.82a6.559 6.559 0 0 1 .284 4.169c-24.357-2.378-32.04 5.919-40.97 18.82-11.742 17.07-10.382 30.802 4.232 42.043a31.199 31.199 0 0 0 7.327 3.846c2.944 1.234 5.978 2.469 8.596 4.927 3.563 3.279 5.38 7.549 7.105 11.637 2.253 5.251 4.556 10.705 10.605 14.328l3.166 1.79c5.146 2.885 12.93 7.236 16.786 12.143 1.015 1.397 3.258 1.862 5.024 2.257.397.065.79.153 1.177.263a37.35 37.35 0 0 0 5.765.82l1.634.131a79.55 79.55 0 0 0 2.659.243c1.238.07 2.567.172 3.785.334 12.828 3.663 21.749 7.66 30.852 13.71 8.667 5.789 16.147 10.271 27.179 11.131 16.166 1.265 25.27-9.026 34.11-18.993 4.739-5.322 9.59-10.816 15.497-14.5 5.317-3.339 11.163-3.207 19.19-3.035h2.03c1.614 0 3.045.131 4.466.192 6.698.354 11.57.597 20.866-6a40.763 40.763 0 0 1 4.81 4.654c2.7 2.945 5.075 5.474 9.855 6.577 2.831.668 5.754.182 8.322-.263a17.913 17.913 0 0 1 4.75-.435 200.39 200.39 0 0 1 24.58 4.655h.131c4.983 1.174 10.504 3.845 15.792 6.476 1.258.597 2.527 1.214 3.765 1.79v-1.284l-3.227-1.569c-5.328-2.56-10.89-5.272-15.974-6.466Z"/><path d="M980.023 282a4.364 4.364 0 0 0-3.852 3.06 3.16 3.16 0 0 0 1.204 3.63l.08.07c1.003.432 2.006 1.003 3.01 1.465 4.333 2.186 9.61 4.774 14.144 4.774.876.01 1.75-.094 2.598-.31l.793-.241-.461-.672c-3.28-4.865-9.832-10.863-17.516-11.776Zm1.003 7.182-2.96-1.455a2.006 2.006 0 0 1-.741-2.337 3.28 3.28 0 0 1 2.688-2.237c6.852.813 12.81 6.019 16.121 10.572-4.524.723-10.373-2.186-15.148-4.543h.04Zm169.347-30.108c-19.895 4.996-39.699 24.615-37.15 51.197v.09c4.699 18.576 20.3 23.177 35.465 27.646 4.12 1.216 8.374 2.473 12.312 3.993v-1.257c-3.877-1.48-7.999-2.695-11.988-3.86-14.809-4.358-30.075-8.848-34.643-26.785-2.416-25.882 16.9-45.014 36.288-49.879a33.549 33.549 0 0 1 10.343-1.013v-1.145a34.748 34.748 0 0 0-10.627 1.013Zm-335.107 36.821a39.95 39.95 0 0 1-.598-5.688c.063-2.842.29-5.679.679-8.496.669-5.596 1.328-10.908-.77-15.846-1.683-3.933-5.596-7.542-9.732-11.344a139.352 139.352 0 0 1-4.359-4.116 272.481 272.481 0 0 1-5.24-5.424c-6.681-7.097-11.973-12.673-21.643-15.998-16.615-5.708-44.187-3.498-65.475 5.13-4.349 1.794-8.93 4.227-13.381 6.57-3.143 1.682-6.346 3.385-9.397 4.825-1.622.76-3.193 1.358-4.744 1.967a31.585 31.585 0 0 0-7.491 3.66c-3.832 2.788-6.711 6.853-9.52 10.797-2.98 4.217-5.818 8.181-9.467 10.138-2.362 1.298-5.413 1.632-8.363 1.947-4.055.435-8.11.922-11.019 3.71-3.274 3.214-4.106 9.125-4.977 14.782-.639 4.694-1.338 9.469-3.386 12.389-2.626 3.74-6.792 5.271-12.053 7.238-1.967.73-3.984 1.48-6.143 2.433a98.397 98.397 0 0 0-12.681 7.036 60.09 60.09 0 0 1-11.557 6.276A45.967 45.967 0 0 1 572.495 330c-2.642.187-5.267.56-7.857 1.115a29.03 29.03 0 0 0-4.693 1.632c-2.96 1.217-5.504 2.281-8.556 1.176-5.14-3.558-2.149-9.915 1.298-17.235a79.083 79.083 0 0 0 3.629-8.526 71.543 71.543 0 0 0 2.727-12.936c1.125-7.746 2.027-13.85 8.586-18.37a15.204 15.204 0 0 1 5.839-2.1c3.04-.638 6.163-1.256 8.332-5.312v-.111c1.014-3.873-.557-7.584-2.19-11.527a55.531 55.531 0 0 1-2.24-6.083 55.33 55.33 0 0 1-1.297-7.097c-.558-3.924-1.115-7.918-2.859-11.152-6.416-11.994-24.075-18.249-37.01-13.18-3.76 1.46-6.457 4.32-9.123 7.097a42.831 42.831 0 0 1-4.45 4.34 77.497 77.497 0 0 1-8.759 5.687 90.827 90.827 0 0 0-11.92 7.847 84.456 84.456 0 0 0-7.239 7.015c-7.562 7.878-14.688 15.289-29.691 13.028-7.866-1.196-27.897-8.11-33.574-11.943-8.85-6.083-14.76-17.103-21.571-29.867-3.041-5.667-6.133-11.507-9.783-17.458-6.366-10.402-14.992-18.249-23.386-25.934-11.566-10.594-22.534-20.62-27.289-36.497-4.754-15.877.528-19.638 12.165-27.87 1.53-1.065 3.142-2.21 4.825-3.457a85.945 85.945 0 0 0 9.823-8.8c1.946-1.947 3.801-3.782 5.575-5.363 1.774-1.582 3.609-2.87 5.282-4.137 4.561-3.406 8.494-6.346 10.958-12.865 7.096-19.06-7.927-40.979-26.113-47.863-4.511-1.683-8.8-1.216-13.381-.71a74.86 74.86 0 0 1-7.674.508h-3.629c-9.61 0-21.551.09-30.29-1.592-6.973-1.369-12.295-3.934-17.942-6.701A97.198 97.198 0 0 0 285.374 19h-.385c-13.878 4.816-12.347 16.08-10.867 27.039.902 6.742 1.855 13.737-1.125 18.826-2.089 3.518-6.417 6.458-11.02 9.601-8.89 6.022-18.986 12.876-15.134 26.065 2.24 6.732 8.363 19.476 14.314 28.387a56.113 56.113 0 0 0 6.599 7.574c6.082 6.235 12.407 12.693 9.6 22.588-1.217 4.237-4.34 7.847-7.35 11.344a43.594 43.594 0 0 0-6.457 8.922c-5.069 10.412-7.299 28.691-5.069 41.617a22.823 22.823 0 0 0 1.349 4.177 21.535 21.535 0 0 1 1.287 3.802 64.7 64.7 0 0 1 1.014 9.449c.223 4.055.395 7.857 1.723 11.375 1.42 3.852 3.832 7.502 6.082 11.06 1.328 2.028 2.727 4.188 3.903 6.327.831 1.51 1.55 3.173 2.25 4.785 1.734 4.056 3.538 8.182 7.502 11.152l.152.091h.182c8.16.163 14.871-2.869 21.288-5.819 7.643-3.467 14.81-6.772 23.548-4.319 7.725 2.12 13.422 9.307 18.896 16.313 2.16 2.82 4.464 5.527 6.903 8.11 1.723 1.744 3.67 3.386 5.575 4.968 3.761 3.153 7.35 6.154 8.81 9.804 4.794 11.77-4.785 33.456-13.179 42.722a96.985 96.985 0 0 1-8.789 7.989c-7.187 6.002-14.597 12.237-14.354 18.918.132 3.548 2.342 6.813 6.742 10.006 1.845 1.328 10.826 2.85 16.046 1.967 7.654-1.308 14.284-6.397 21.288-11.77 5.707-4.38 11.658-8.942 18.247-11.223 7.775-2.697 16.219-2.099 23.579-1.612 5.767.395 11.262.77 15.62-.467 5.333-1.5 9.996-5.2 14.111-8.445 2.92-2.332 5.728-4.542 8.384-5.687a37.93 37.93 0 0 1 11.586-3.042 55.494 55.494 0 0 1 10.4.446c4.715.507 9.58 1.014 14.193 0a60.493 60.493 0 0 0 10.4-3.74c2.98-1.298 5.555-2.414 7.502-2.545 5.068-.325 25.281 4.298 30.279 7.37 3.041 1.906 5.2 4.998 7.217 8.01a37.825 37.825 0 0 0 4.572 5.95 50.209 50.209 0 0 0 9.448 6.752c6.569 3.975 13.34 8.11 14.293 16.303-5.068 5.89-12.479 14.65-11.242 21.949.487 2.88 2.257 5.218 5.312 7.015 3.294 1.906 6.305 2.454 8.961 1.633 5.22-1.612 8.252-8.03 10.928-13.677 1.48-3.132 2.879-6.083 4.41-7.583 4.054-3.984 10.501-4.603 16.219-5.201a46.625 46.625 0 0 0 6.7-.953 37.332 37.332 0 0 0 5.403-2.028c4.511-1.926 8.11-3.406 10.948.619-1.389 4.055-3.801 5.708-6.366 7.462a17.619 17.619 0 0 0-5.535 5.21c-7.45 12.045-2.696 30.294 5.971 40.3 3.163 3.64 8.252 6.519 13.178 9.266 10.137 5.708 19.737 11.152 13.472 23.207-3.588 6.975-11.455 10.554-19.777 14.365-8.566 3.894-17.436 7.918-21.46 15.999l-.355.679.75.172c1.335.27 2.693.413 4.055.426 4.937 0 9.336-1.815 13.624-3.589a59.023 59.023 0 0 1 7.948-2.758 46.26 46.26 0 0 1 7.501-.912c3.76-.284 7.674-.527 11.15-2.078 2.403-1.014 4.42-2.9 6.59-4.867a36.17 36.17 0 0 1 7.562-5.707 47.803 47.803 0 0 1 8.231-3.123c3.406-1.014 6.61-2.028 9.529-4.055 12.215-8.303 24.004-28.296 21.724-46.048a37.373 37.373 0 0 0-1.612-6.458c-1.125-3.538-2.19-6.854-1.571-11.081 2.027-14.194 18.368-44.983 35.246-49.85 7.37-2.098 15.124.73 22.656 3.478 10.776 3.933 21.916 8.03 32.56-1.663l.173-.152v-.203c.841-5.82-.112-10.554-1.014-15.106-1.014-4.846-1.926-9.428-.598-14.832 1.53-6.235 5.17-11.882 8.718-17.316 4.054-6.174 8.2-12.592 9.305-19.962a25.43 25.43 0 0 0-.557-6.823Zm-.7 6.64c-1.013 7.097-5.129 13.403-9.123 19.486-3.609 5.535-7.319 11.264-8.89 17.681-1.399 5.667-.426 10.351.598 15.329.882 4.43 1.835 9.013 1.075 14.518-10.137 9.033-20.376 5.292-31.233 1.287-7.704-2.788-15.661-5.707-23.386-3.497-17.293 4.978-34 36.376-36.087 50.792-.66 4.491.496 8.11 1.622 11.619a36.116 36.116 0 0 1 1.57 6.245c2.23 17.316-9.295 36.812-21.216 44.953-2.767 1.885-5.89 2.838-9.204 3.852-2.9.799-5.72 1.864-8.424 3.183a35.875 35.875 0 0 0-7.836 5.911 25.475 25.475 0 0 1-6.285 4.664c-3.254 1.419-7.096 1.703-10.745 1.977a46.838 46.838 0 0 0-7.654.922 55.648 55.648 0 0 0-8.11 2.86c-5.068 2.027-10.329 4.207-16.28 3.203 4.005-7.26 12.388-11.081 20.508-14.782 8.12-3.7 16.584-7.563 20.345-14.862 6.791-13.12-3.73-19.07-13.929-24.809-4.825-2.696-9.782-5.484-12.833-9.002-8.404-9.692-13.036-27.302-5.89-38.89a16.22 16.22 0 0 1 5.2-4.867c2.677-1.845 5.444-3.72 6.904-8.364l.091-.253-.152-.233c-3.396-5.14-8.038-3.174-12.55-1.268a39.673 39.673 0 0 1-5.22 1.906 46.25 46.25 0 0 1-6.549.923c-5.9.628-12.63 1.267-16.918 5.515-1.663 1.683-3.122 4.735-4.643 7.938-2.575 5.424-5.494 11.598-10.208 13.058-2.392.73-4.997.223-8.008-1.55-2.757-1.613-4.36-3.63-4.775-6.175-1.155-6.813 6.529-15.775 11.151-21.148l.182-.203v-.243c-.912-9.003-7.987-13.292-14.87-17.479a47.35 47.35 0 0 1-9.225-6.57 35.96 35.96 0 0 1-4.44-5.748c-2.109-3.122-4.278-6.346-7.542-8.394-5.292-3.204-25.647-7.867-31.02-7.523-2.128.142-4.825 1.288-7.876 2.636a59.449 59.449 0 0 1-10.198 3.68c-4.379 1.014-9.123.528-13.786 0a57.51 57.51 0 0 0-10.614-.446 40.068 40.068 0 0 0-11.971 3.123c-2.788 1.217-5.616 3.447-8.627 5.82-4.227 3.365-8.627 6.812-13.715 8.272-4.156 1.176-9.54.801-15.206.426-7.521-.517-16.037-1.105-24.045 1.673-6.751 2.321-12.742 6.955-18.56 11.395-6.884 5.292-13.382 10.27-20.771 11.527-4.998.862-13.675-.659-15.155-1.744-4.116-2.97-6.153-5.93-6.265-9.073-.213-6.134 6.995-12.166 13.949-18.006a97.715 97.715 0 0 0 8.89-8.11c7.582-8.273 18.865-30.668 13.472-43.98-1.592-3.923-5.271-6.995-9.184-10.25-1.855-1.55-3.781-3.163-5.464-4.886-2.301-2.352-4.47-5.14-6.812-8.05-5.596-7.097-11.414-14.477-19.494-16.738-9.123-2.606-16.523.76-24.329 4.339-6.284 2.859-12.782 5.89-20.588 5.738-3.609-2.727-5.312-6.691-6.974-10.533a52.944 52.944 0 0 0-2.301-4.846c-1.217-2.19-2.605-4.36-3.964-6.418a57.993 57.993 0 0 1-5.99-10.838c-1.258-3.345-1.44-7.096-1.653-11.02a68.37 68.37 0 0 0-1.014-9.631 21.89 21.89 0 0 0-1.348-4.055 21.667 21.667 0 0 1-1.277-3.934c-2.17-12.48.07-30.84 4.957-40.908a41.901 41.901 0 0 1 6.275-8.648c3.102-3.589 6.335-7.33 7.592-11.8 3.041-10.575-3.832-17.57-9.883-23.734a58.242 58.242 0 0 1-6.468-7.39c-5.88-8.79-11.941-21.403-14.192-28.053-3.608-12.4 5.677-18.705 14.689-24.808 4.683-3.184 9.123-6.215 11.343-9.956 3.214-5.424 2.21-12.632 1.288-19.597-1.48-10.848-2.88-21.118 9.863-25.61a94.44 94.44 0 0 1 13.32 5.627c5.707 2.788 11.1 5.394 18.247 6.783 8.85 1.713 20.882 1.672 30.553 1.642h3.78a70.363 70.363 0 0 0 7.786-.527c4.622-.517 8.627-.933 12.833.659 17.66 6.832 32.337 28.012 25.404 46.452-2.332 6.215-5.96 8.922-10.553 12.348-1.703 1.258-3.477 2.586-5.332 4.228-1.855 1.643-3.7 3.427-5.667 5.373a92.525 92.525 0 0 1-9.65 8.72l-4.815 3.426c-11.79 8.293-17.72 12.46-12.681 29.157 4.865 16.222 15.935 26.289 27.653 36.995 8.292 7.593 16.878 15.42 23.143 25.69 3.65 5.9 6.751 11.73 9.752 17.367 6.903 12.946 12.854 24.119 21.947 30.313 5.95 4.055 25.97 10.909 34.07 12.166 15.6 2.382 23.315-5.617 30.705-13.383a83.128 83.128 0 0 1 7.147-6.883 88.87 88.87 0 0 1 11.769-7.787 80.233 80.233 0 0 0 8.89-5.778 48.843 48.843 0 0 0 4.602-4.44c2.636-2.82 5.069-5.445 8.627-6.844 12.164-4.755 29.468 1.42 35.56 12.703 1.632 3.041 2.17 6.945 2.697 10.706.3 2.465.75 4.91 1.348 7.32a51.648 51.648 0 0 0 2.28 6.154c1.613 3.893 3.042 7.279 2.14 10.706-1.876 3.497-4.491 4.055-7.492 4.643a16.066 16.066 0 0 0-6.284 2.281c-6.995 4.805-7.948 11.466-9.124 19.192a69.454 69.454 0 0 1-2.676 12.713 79.54 79.54 0 0 1-3.568 8.415c-3.538 7.492-6.893 14.619-.831 18.755l.1.071c3.529 1.278 6.418.081 9.479-1.176a29.476 29.476 0 0 1 4.531-1.571c2.547-.538 5.128-.9 7.725-1.085a46.331 46.331 0 0 0 11.718-2.19 62.513 62.513 0 0 0 11.77-6.306 92.162 92.162 0 0 1 12.6-6.985c2.098-.953 4.054-1.683 6.082-2.413 5.24-1.946 9.751-3.63 12.58-7.675 2.22-3.122 2.95-8.11 3.608-12.855.822-5.515 1.643-11.202 4.653-14.193 2.565-2.494 6.326-2.94 10.28-3.386 3.04-.335 6.244-.66 8.808-2.079 3.893-2.119 6.812-6.194 9.884-10.554 2.747-3.842 5.606-7.826 9.255-10.503a30.926 30.926 0 0 1 7.207-3.497c1.572-.619 3.163-1.247 4.805-2.028 3.041-1.44 6.326-3.163 9.458-4.826 4.41-2.342 8.992-4.775 13.3-6.55 21.105-8.576 48.272-10.725 64.664-5.068 9.387 3.234 14.577 8.719 21.176 15.683a225.566 225.566 0 0 0 5.241 5.465 131.13 131.13 0 0 0 4.4 4.167c4.054 3.69 7.876 7.208 9.447 10.929 1.977 4.623 1.348 9.803.69 15.207a69.556 69.556 0 0 0-.69 8.628c.045 1.972.245 3.939.598 5.88a22.59 22.59 0 0 1 .456 6.488Z"/><path d="M772.091 238.985c-10.427-5.589-34.09-2.41-51.17 2.025-12.426 3.2-30.024 14.843-40.024 26.486-2.546 2.946-4.869 6.196-7.151 9.335-5.67 7.887-11.533 16.017-20.935 19.996l-.183.06-.09.203c-5.488 10.56-5.711 22.801-5.975 34.667-.06 3.908-.132 7.624-.396 11.31v.293l.264.212c28.796 21.201 17.375 56.283 7.942 75.368a15.417 15.417 0 0 1-4.737 2.43c-2.92 1.154-5.933 2.329-6.552 4.475a3.964 3.964 0 0 0 .933 3.463c2.88 4.485 9.048 4.424 14.981 4.373a49.84 49.84 0 0 1 6.086.132c1.748.244 3.472.637 5.152 1.175 1.635.573 3.342.914 5.072 1.012a8.777 8.777 0 0 0 3.428-.709c6.735-2.845 12.973-17.04 17.09-26.405l.954-2.116a66.98 66.98 0 0 0 3.216-9.84c1.105-4.05 2.14-7.99 4.219-10.865 2.617-3.644 6.887-6.257 11.42-8.99 2.263-1.377 4.606-2.795 6.797-4.374 2.373-1.731 4.655-3.584 6.826-5.356 3.641-2.956 7.1-5.74 9.98-7.158 5.924-2.805 11.796-3.31 17.487-3.837 5.69-.527 11.268-1.013 16.117-3.939 12.171-7.31 24.677-35.264 26.909-45.56 5.852-27.215-9.778-58.258-27.66-67.866Zm26.524 67.541c-2.171 10.186-14.413 37.674-26.372 44.832-4.595 2.754-9.96 3.26-15.62 3.777-5.66.516-11.755 1.012-17.872 3.958-3.042 1.458-6.521 4.303-10.203 7.29-2.191 1.792-4.443 3.625-6.796 5.326-2.14 1.549-4.463 2.956-6.704 4.303-4.626 2.835-9.007 5.477-11.756 9.324-2.211 3.038-3.266 7.027-4.422 11.249a61.55 61.55 0 0 1-3.145 9.659l-.933 2.136c-4.057 9.213-10.143 23.135-16.482 25.787-2.708 1.134-4.92.486-7.708-.334a32.781 32.781 0 0 0-5.336-1.184 39.19 39.19 0 0 0-4.158-.182h-2.15c-5.62.07-11.442.141-13.967-3.817a2.973 2.973 0 0 1-.781-2.481c.466-1.59 3.215-2.673 5.852-3.685 2.14-.86 4.139-1.66 5.244-2.785l.091-.131c9.555-19.338 21.179-54.997-8.023-76.765.274-3.574.345-7.36.406-11.026.244-11.643.467-23.681 5.71-33.958 9.586-4.13 15.499-12.352 21.23-20.249 2.261-3.128 4.574-6.358 7.1-9.254 9.899-11.491 27.203-22.983 39.405-26.162 16.887-4.374 40.196-7.553 50.308-2.126 15.498 8.343 33.279 37.674 27.082 66.498Z"/><path d="M1125.981 409.775c-1.967.659-4.157 1.571-6.255 2.453-3.68 1.55-7.442 3.122-10.139 3.406-3.69.446-7.3-.862-11.152-2.21a46.94 46.94 0 0 0-7.584-2.23c-2.9-.487-5.8-.78-8.628-1.014a95.619 95.619 0 0 1-10.22-1.307c-2.636-.548-5.424-1.125-8.364-1.764-9.185-1.976-19.588-4.206-29.453-5.332-6.23-.55-12.494-.624-18.736-.223-3.163.112-6.397.244-9.6.223-17.307-.07-20.501 2.028-30.984 8.778l-3.275 2.15c-10.139 6.476-22.102-.335-26.99-6.944-2.22-3.04-3.162-6.77-4.055-10.4-.375-1.398-.73-2.828-1.145-4.186-.65-2.027-1.572-4.997-3.234-6.538-2.028-1.926-5.019-1.885-8.01-1.601-3.267.31-6.554.327-9.824.05a15.741 15.741 0 0 0-1.42-.131c-2.626-.244-4.907-.467-7.654.7a33.824 33.824 0 0 0-6.215 3.79c-.416.324-.862.639-1.288.922-.192.132-.415.294-.68.507-1.459 1.014-5.332 3.852-6.59 3.365-5.515-2.077-10.138-5.128-14.964-8.331-6.083-4.055-12.43-8.282-20.976-10.674-1.876-.527-3.823-1.013-5.79-1.581-17.235-4.652-36.843-9.913-38.526-25.685-.953-8.737 3.558-14.383 7.898-19.846 3.102-3.893 6.326-7.917 7.431-12.964 1.4-6.61 0-12.164-1.216-17.14a50.265 50.265 0 0 1-1.278-5.95 90.098 90.098 0 0 1-.578-10.248c-.132-5.565-.243-11.322-1.794-16.938-5.688-20.525-27.435-35.679-58.186-40.544-31.379-5.068-52.72 2.17-73.261 9.123-7.31 2.463-14.194 4.753-21.291 6.487-6.965 1.652-11.548 5.95-15.979 10.136-4.775 4.45-9.246 8.696-16.414 9.75h-1.014c-13.342 0-19.76-4.865-27.151-10.49l-3.518-2.646a74.4 74.4 0 0 0-7.036-4.389c-4.056-2.32-8.111-4.733-11.153-7.936a43.221 43.221 0 0 1-4.45-5.89c-1.856-2.736-3.6-5.351-6.418-6.983-2.819-1.632-6.083-2.129-9.125-2.504-1.257-.152-2.484-.314-3.63-.527l-2.433-.537c-9.733-2.027-19.8-4.115-30.8-2.757l-.214.06c-12.237 7.015-22.883 16.3-33.173 25.26-2.636 2.3-5.242 4.581-7.858 6.811-8.8 7.48-15.44 12.306-27.04 11.221-9.884-.902-23.41-4.206-31.682-14.667-4.837-6.082-7.3-11.596-9.906-17.404-2.92-6.446-5.951-13.176-12.5-21.529-8.588-10.947-18.3-18.822-26.888-25.796-12.167-9.802-22.589-18.245-24.586-31.584-1.704-11.22 2.027-14.383 7.239-18.762l1.703-1.46c3.041-2.625 6.397-5.28 9.936-8.109 12.166-9.578 25.934-20.424 29.584-34.401.79-3.041.79-7.258.77-11.748a90.615 90.615 0 0 1 .366-10.826 59.507 59.507 0 0 1 2.372-9.66c1.572-5.159 3.042-10.044 2.109-15.285-2.393-12.74-15.786-26.242-28.702-28.847-12.917-2.605-23.654 1.176-33.924 4.865-10.088 3.578-19.578 6.994-30.953 4.582-6.702-1.44-11.508-4.957-16.13-8.383-6.53-4.845-12.694-9.406-23.076-6.71-16.09 4.207-21.748 20.485-27.192 36.257-2.474 7.197-4.826 13.958-8.11 19.451-4.29 2.19-7.696 2.301-11.021 2.453-2.272.015-4.534.29-6.743.821-6.955 1.855-11.335 4.886-13.362 9.265-3.721 7.967 1.277 18.63 5.708 28.006 2.16 4.602 4.197 8.96 4.927 12.406 1.267 6.021 1.196 16.461-.152 23.8a30.307 30.307 0 0 1-14.022 20.931c-11.446 7.298-26.603 8.007-35.87 5.555-15.096-3.943-15.076-9.123-14.934-20.597a101.62 101.62 0 0 0-1.247-18.934c-2.85-16.806-16.75-28.209-38.162-31.21-28.56-4.054-52.092-3.963-69.895.305-3.346 1.48-6.002 1.662-8.233.598-4.34-2.027-6.083-8.535-7.543-14.262-.274-1.013-.507-2.027-.78-2.878l-.061-.203-.132-.112c-3.275-2.635-7.99-2.716-12.288-.243-3.802 2.21-7.3 6.7-6.5 11.728l.062.202c2.524 4.42 7.837 5.636 12.5 6.72 1.014.244 2.028.447 2.93.71 6.084 6.082 4.756 15.204 3.732 22.472-.264 1.834-.528 3.578-.639 5.16-.152 2.026-.304 3.972-.436 5.97-1.014 12.517-1.926 25.43-4.258 33.996-2.454 8.96-8.628 13.116-14.58 17.12-6.56 4.43-12.703 8.565-13.747 18.326-.73 6.75.111 16.329 4.643 23.029l.091.132.173.091c12.42 5.514 21.737 1.105 29.939-2.808 5.576-2.655 10.868-5.129 16.556-4.379 5.465.73 11.305 7.43 16.02 12.802a63.54 63.54 0 0 0 5.748 6.082 61.775 61.775 0 0 0 8.496 5.859c3.63 2.23 7.097 4.358 9.692 7.612 3.853 4.845 5.181 11.281 6.59 18.073 1.41 6.79 2.83 13.754 6.976 19.066l.111.131h.173c14.113 5.25 24.85 11.09 33.741 18.448l.223.203.304-.081a53.366 53.366 0 0 0 14.904-6.842c4.238-2.696 7.046-4.49 13.799-3.558 6.154.811 12.987 5.9 20.196 11.302 10.27 7.653 20.895 15.549 30.8 11.96 9.186-3.314 15.209-18.245 16.973-27.468.202-1.146.355-2.605.517-4.339.507-5.24 1.186-12.477 5.069-15.305 1.724-1.237 3.843-1.551 6.57-.933 10.138 2.26 12.633 18.124 11.152 26.354a31.903 31.903 0 0 1-2.95 8.11c-1.855 3.962-3.65 7.703-2.606 12.274a5.91 5.91 0 0 0 3.853 3.68c1.629.214 3.278.214 4.907 0h.152l.183-.112c5.241-4.49 13.677-9.123 22.609-13.937 5.799-3.143 11.79-6.416 17.063-9.772 7.492-4.733 13.18-7.166 18.513-7.855 13.768-1.774 32.19 25.26 33.944 38 2.372 16.968-7.35 25.776-17.59 35.061-7.655 6.923-15.553 14.12-17.784 24.864-.121.557-.243 1.176-.405 1.835-.842 3.72-1.896 8.392-.598 11.93 2.839 7.865 14.762 12.538 24.079 12 13.292-.79 28.763-8.108 37.168-15.01a87.5 87.5 0 0 0 2.656-2.19c6.722-5.575 12.521-10.4 21.443-9.67a56.677 56.677 0 0 1 10.423 2.24c5.698 1.581 11.609 3.203 18.026 2.23 9.45-1.46 16.09-5.747 23.126-10.308.883-.598 1.785-1.146 2.697-1.744l2.15-1.399c3.041-2.077 6.54-4.399 10.524-5.31a25.12 25.12 0 0 1 6.57-.173 31.61 31.61 0 0 0 5.626 0 80.112 80.112 0 0 0 13.566-2.96c7.431-2.027 15.066-4.227 22.832-2.656 12.703 2.545 27.252 17.516 25.265 29.902-.507 3.213-2.382 6.264-4.228 9.204-1.652 2.726-3.244 5.27-3.873 7.987-1.013 4.45-.659 10.4-.344 16.218.172 2.868.324 5.838.324 8.534 0 2.696 0 5.666-.111 8.474-.152 9.376-.345 18.245 1.46 23.05 2.463 6.497 6.083 8.493 9.5 10.41a19.08 19.08 0 0 1 4.947 3.547c2.798 3.04 4.43 6.416 5.465 11.433 1.287 6.285.07 12.407-1.105 18.337-1.014 4.997-1.947 9.71-1.126 13.937 1.623 8.494 8.628 14.535 15.421 20.373 2.504 2.17 5.12 4.4 7.33 6.68a29.232 29.232 0 0 1 4.056 6 22.025 22.025 0 0 0 3.579 5.281c7.097 6.68 22.193 4.785 27.374 1.237 5.86-4.054 6.813-10.5 7.695-16.765.821-5.686 1.592-11.038 5.89-14.555 4.593-3.74 12.481-6.792 20.795-10.035 8.74-3.396 17.813-6.913 24.627-11.707a150.19 150.19 0 0 1 12.926-7.967c13.028-7.43 26.482-15.103 30.73-31.655a551.921 551.921 0 0 1 2.85-10.197 150.643 150.643 0 0 0 4.247-16.988c.388-2.993.426-6.02.112-9.022a39.886 39.886 0 0 1-.112-6.355c.497-4.926 3.123-9.528 5.364-12.984a118.857 118.857 0 0 0 5.9-10.795c4.623-9.224 8.628-17.232 16.901-18.022 23.542 4.53 40.555 8.514 60.65 14.19l1.419.396c13.717 3.892 27.921 7.916 36.286 17.85a111.609 111.609 0 0 1 8.11 11.372c3.458 5.332 6.692 10.349 11.488 14.09 4.227 3.273 12.774 9 22.568 10.42a21.883 21.883 0 0 0 16.75-4.582 45.61 45.61 0 0 0 2.027-1.612c1.014-.841 2.088-1.703 3.194-2.483a7.634 7.634 0 0 0 1.013-.75 10.717 10.717 0 0 1 1.856-1.257 8.184 8.184 0 0 1 3.437-.396h1.804a30.837 30.837 0 0 0 8.375-2.24c1.348-.486 2.768-1.013 4.177-1.388a45.864 45.864 0 0 0 5.536-2.109c1.591-.659 3.274-1.338 4.937-1.875 3.376-1.013 6.874-1.855 10.26-2.635l1.197-.264c7.715-1.794 15.836-3.892 23.075-8.291 1.643-1.014 3.042-1.946 4.492-2.859 3.63-2.432 6.529-4.338 9.712-4.865 3.57-.618 8.405.639 13.525 1.946a84.24 84.24 0 0 0 12.278 2.524c15.42 1.592 29.098 5.393 43.596 9.396a65.292 65.292 0 0 1 9.733 3.913c3.72 1.774 7.604 3.588 11.548 4.358 4.937.953 9.672-.08 14.711-1.165 1.42-.314 2.88-.639 4.36-.933 13.545-2.564 27.749-6.233 40.098-15.883 1.673-1.318 3.295-2.737 4.836-4.136a71.373 71.373 0 0 1 8.11-6.456 23.24 23.24 0 0 1 4.117-2.028v-1.267a25.126 25.126 0 0 0-4.735 2.352 68.099 68.099 0 0 0-8.232 6.548c-1.612 1.419-3.143 2.787-4.796 4.054-12.166 9.508-26.198 13.177-39.54 15.681-1.521.284-2.981.598-4.42.933-4.888 1.013-9.541 2.027-14.195 1.165-3.802-.75-7.411-2.453-11.264-4.247a63.78 63.78 0 0 0-9.915-4.004c-13.87-3.851-28.186-7.825-43.738-9.467a82.14 82.14 0 0 1-12.085-2.483c-5.262-1.328-10.22-2.605-14.032-1.967-3.447.599-6.388 2.565-10.139 5.069-1.42.902-2.839 1.875-4.47 2.848-7.098 4.338-15.118 6.396-22.721 8.19l-1.197.243c-3.406.77-6.925 1.612-10.361 2.646-1.724.537-3.397 1.246-5.07 1.925a46.442 46.442 0 0 1-5.404 2.028c-1.45.425-2.869.932-4.248 1.439a29.874 29.874 0 0 1-8.05 2.149h-1.663a8.934 8.934 0 0 0-3.954.486c-.765.392-1.48.876-2.129 1.44l-1.014.71c-1.125.77-2.23 1.662-3.254 2.493a50.149 50.149 0 0 1-2.028 1.601 20.392 20.392 0 0 1-15.856 4.359c-9.54-1.379-17.875-6.974-22.042-10.207-4.603-3.599-7.806-8.535-11.152-13.775a114.996 114.996 0 0 0-8.354-11.353c-8.568-10.237-22.954-14.332-36.895-18.245l-1.389-.405c-20.135-5.707-37.198-9.7-60.831-14.241h-.152c-8.983.82-13.343 9.487-17.946 18.67a107.05 107.05 0 0 1-5.84 10.684c-2.301 3.588-5.069 8.321-5.535 13.511a41.254 41.254 0 0 0 .121 6.558 41 41 0 0 1-.09 8.727 152.71 152.71 0 0 1-4.229 16.857c-.922 3.213-1.875 6.487-2.849 10.247-4.136 16.056-17.377 23.607-30.182 30.905-4.41 2.514-8.963 5.13-13.038 8.028-6.702 4.754-15.685 8.23-24.333 11.586-8.405 3.274-16.323 6.355-21.098 10.227-4.776 3.872-5.495 9.62-6.286 15.285-.862 5.99-1.775 12.164-7.219 15.975-4.735 3.264-19.263 5.068-25.843-1.156a20.94 20.94 0 0 1-3.387-4.977 29.05 29.05 0 0 0-4.227-6.243 98.6 98.6 0 0 0-7.391-6.74c-6.631-5.708-13.495-11.637-15.046-19.716-.75-4.054.162-8.605 1.135-13.511 1.146-5.727 2.434-12.255 1.106-18.782-1.085-5.18-2.86-8.87-5.729-11.991a20.571 20.571 0 0 0-5.262-3.781c-3.285-1.794-6.64-3.7-8.942-9.802-1.754-4.581-1.571-13.339-1.42-22.603.072-2.788.112-5.707.112-8.494 0-2.788-.152-5.707-.334-8.606-.304-5.686-.64-11.545.334-15.843.598-2.534 2.13-5.017 3.741-7.652 1.876-3.041 3.823-6.173 4.38-9.62 2.028-12.964-13.008-28.583-26.218-31.26-8.01-1.61-15.826.579-23.37 2.707a80.832 80.832 0 0 1-13.362 2.91 29.41 29.41 0 0 1-5.424 0 25.596 25.596 0 0 0-6.895.202c-4.207.953-7.817 3.335-10.96 5.463-.73.487-1.44.953-2.098 1.41-.933.557-1.835 1.155-2.748 1.733-6.924 4.49-13.474 8.717-22.66 10.136-6.164 1.013-11.943-.619-17.519-2.17a57.173 57.173 0 0 0-10.645-2.28c-9.399-.77-15.37 4.206-22.305 9.933-.842.73-1.724 1.47-2.636 2.17-8.274 6.75-23.471 13.987-36.5 14.778-8.911.507-20.216-3.852-22.902-11.241-1.146-3.203-.153-7.673.648-11.302.173-.638.305-1.236.416-1.835 2.15-10.369 9.895-17.403 17.388-24.225 10.047-9.061 20.43-18.488 18.016-36.094-1.855-13.451-20.673-40.88-35.272-39.004-5.485.73-11.345 3.183-19.03 8.048-5.222 3.304-11.214 6.578-16.992 9.72-8.892 4.866-17.327 9.417-22.67 13.938a17.24 17.24 0 0 1-4.32 0 4.795 4.795 0 0 1-3.041-2.869c-.882-4.054.79-7.653 2.585-11.413a34.751 34.751 0 0 0 3.042-8.413c1.5-8.626-1.227-25.28-12.085-27.692-3.042-.69-5.556-.304-7.503 1.125-4.34 3.122-5.07 10.663-5.596 16.157-.152 1.672-.294 3.112-.487 4.217-1.683 8.625-7.553 23.455-16.222 26.587-9.317 3.365-19.669-4.359-29.665-11.789-7.35-5.504-14.296-10.683-20.754-11.565-7.158-.953-10.29 1.014-14.61 3.74a50.476 50.476 0 0 1-14.265 6.609c-8.922-7.298-19.648-13.177-33.7-18.336-3.894-5.068-5.293-11.88-6.661-18.448-1.37-6.568-2.789-13.542-6.824-18.59-2.737-3.415-6.275-5.564-10.017-7.865a64.32 64.32 0 0 1-8.323-5.747 65.172 65.172 0 0 1-5.637-5.98c-4.847-5.525-10.839-12.407-16.75-13.178-5.91-.77-11.436 1.774-17.235 4.511-8.344 3.943-16.972 8.109-28.804 2.838-4.299-6.436-5.07-15.64-4.41-22.117 1.014-9.254 6.955-13.228 13.261-17.485 6.144-4.135 12.501-8.423 15.046-17.819 2.362-8.636 3.315-21.64 4.289-34.2.131-2.026.283-4.054.446-5.98.101-1.54.375-3.273.638-5.068 1.085-7.602 2.434-17.089-4.177-23.617l-.121-.09h-.152a154.007 154.007 0 0 0-3.093-.761c-4.653-1.075-9.408-2.16-11.7-6.082-.649-4.42 2.494-8.423 5.921-10.39 2.991-1.743 7.371-2.635 10.818 0 .254.862.466 1.764.71 2.697 1.592 5.97 3.386 12.72 8.192 15.022 2.514 1.216 5.617 1.013 9.125-.558 17.59-4.176 40.929-4.267 69.388-.263 9.845 1.419 33.204 7.095 37.128 30.256a97.942 97.942 0 0 1 1.196 18.742c-.091 11.322-.132 17.565 15.857 21.742 9.47 2.503 25.052 1.773 36.752-5.707a31.422 31.422 0 0 0 14.61-21.702c1.369-7.47 1.41-18.113.132-24.235-.76-3.608-2.84-8.018-5.07-12.68-4.309-9.184-9.124-19.553-5.687-27.033 1.885-4.055 6.022-6.832 12.592-8.606a26.58 26.58 0 0 1 6.509-.77c3.477-.162 7.036-.314 11.66-2.656l.13-.091.112-.152c3.336-5.595 5.77-12.498 8.273-19.826 5.354-15.438 10.91-31.422 26.36-35.477 9.825-2.544 15.503 1.663 22.083 6.487 4.734 3.487 9.6 7.096 16.546 8.596 11.71 2.483 21.372-1.014 31.622-4.622 10.25-3.609 20.683-7.541 33.366-5.018 12.501 2.545 25.479 15.6 27.77 27.946.922 4.936-.527 9.67-2.028 14.687a61.2 61.2 0 0 0-2.413 9.883 93.128 93.128 0 0 0-.446 10.845c0 4.4 0 8.545-.73 11.444-3.569 13.603-17.175 24.327-29.189 33.794-3.559 2.787-6.925 5.443-10.007 8.109-.547.486-1.125 1.013-1.673 1.439-5.272 4.44-9.429 7.967-7.634 19.816 2.028 13.765 12.694 22.39 25.022 32.365 8.516 6.923 18.189 14.758 26.685 25.593 6.458 8.271 9.47 14.89 12.349 21.286 2.646 5.859 5.15 11.393 10.088 17.627 8.516 10.795 22.365 14.19 32.443 15.133 12.055 1.105 18.868-3.852 27.901-11.525 2.626-2.24 5.212-4.52 7.868-6.811 10.23-8.9 20.784-18.124 32.88-25.067 10.756-1.287 20.692.77 30.294 2.767l2.433.527c1.196.244 2.504.396 3.741.558 2.9.355 5.931.73 8.668 2.321 2.738 1.591 4.188 3.892 6.023 6.64a42.694 42.694 0 0 0 4.603 6.08c3.143 3.346 7.35 5.778 11.456 8.11 2.464 1.45 4.806 2.797 6.915 4.318 1.206.892 2.362 1.774 3.488 2.655 7.766 5.86 14.467 10.947 28.945 10.684 7.604-1.125 12.45-5.656 17.145-10.065 4.319-4.055 8.78-8.23 15.44-9.822 7.199-1.723 14.103-4.055 21.423-6.497 20.44-6.903 41.62-14.05 72.684-9.123 11.376 1.835 49.03 10.045 57.243 39.744 1.52 5.483 1.632 11.15 1.764 16.664.004 3.47.197 6.939.578 10.389a50.67 50.67 0 0 0 1.307 6.082c1.217 4.824 2.565 10.268 1.217 16.592-1.064 4.785-4.055 8.515-7.188 12.478-4.522 5.666-9.125 11.505-8.172 20.728 1.774 16.542 21.778 21.925 39.389 26.699 2.027.527 3.913 1.064 5.82 1.571 8.343 2.372 14.578 6.507 20.641 10.511 4.907 3.264 9.54 6.345 15.208 8.464 1.724.669 4.867-1.46 7.695-3.538.274-.172.497-.355.65-.466.455-.304.902-.639 1.327-.943a34.807 34.807 0 0 1 5.972-3.659c2.524-1.013 4.532-.831 7.097-.618.446 0 .912.07 1.42.132 3.348.306 6.718.306 10.067 0 2.677-.284 5.384-.325 7.036 1.236 1.44 1.328 2.322 4.186 2.92 6.082.406 1.328.78 2.747 1.136 4.125.953 3.73 1.926 7.602 4.268 10.785 5.15 6.994 17.783 14.12 28.56 7.237 1.197-.75 2.282-1.439 3.316-2.128 10.513-6.812 13.322-8.667 30.324-8.596 3.163 0 6.459-.121 9.642-.223a121.226 121.226 0 0 1 18.584.223c9.804 1.125 20.176 3.335 29.341 5.302 2.9.638 5.708 1.236 8.344 1.773a93.996 93.996 0 0 0 10.352 1.328c2.788.264 5.708.527 8.547 1.014a45.217 45.217 0 0 1 7.39 2.169c3.955 1.399 7.696 2.747 11.66 2.28 2.808-.304 6.671-1.946 10.422-3.496 2.1-.862 4.238-1.764 6.195-2.433 8.8-2.99 15.147-6.153 20.5-10.238a41.075 41.075 0 0 1 14.032-7.014v-1.216a41.877 41.877 0 0 0-14.731 7.298c-5.242 4.064-11.457 7.156-20.156 10.126Z"/><path d="M1007.373 274.414c-1.96-1.107-4.02-2.235-5.858-3.413-1.688-1.107-3.265-2.265-4.802-3.392-3.265-2.387-6.028-4.449-9.042-5.078-12.589-2.742-25.509 5.25-34.581 21.43v.132c-4.742 18.708 6.48 26.264 24.112 35.67 1.93 1.015 3.858 2.173 5.727 3.3 5.937 3.565 11.614 6.937 17.933 6.937 1.735.002 3.461-.25 5.124-.752 7.525-2.214 13.684-9.14 16.467-18.576 3.144-10.542 1.406-21.877-4.4-28.834-2.372-2.762-6.43-5.048-10.68-7.424Zm13.894 35.893c-2.672 9.049-8.53 15.691-15.673 17.804-8.037 2.366-14.869-1.727-22.103-6.094-1.868-1.107-3.817-2.265-5.786-3.331-17.08-9.141-28.02-16.444-23.55-34.248 8.79-15.661 21.229-23.42 33.255-20.79 2.742.63 5.485 2.62 8.64 4.946 1.537 1.128 3.114 2.306 4.873 3.413 1.758 1.107 3.918 2.356 5.897 3.463 4.16 2.326 8.128 4.52 10.258 7.11 5.576 6.642 7.213 17.57 4.19 27.727Z"/><path d="M1086.81 245.066c4.667-2.336 9.966-5.004 10.19-10.979v-.141l-.082-.172c-6.603-9.978-24.457-16.994-37.92-18.56-17.058-2.022-23.642 10.705-29.47 21.906-4.362 8.34-8.449 16.174-16.143 17.913-3.404.728-7.694-1.162-12.229-3.194-3.617-1.658-7.398-3.326-10.934-3.71-18.843-1.87-47.265 21.684-51.596 38.475a26.921 26.921 0 0 0 .153 12.202c.622 2.648 1.09 5.368 1.56 7.966 1.446 8.34 2.802 16.174 9.568 21.492 4.077 3.194 9.172 4.72 14.165 6.197 4.994 1.476 9.916 2.972 13.717 6.116a23.723 23.723 0 0 1 3.76 4.124c1.56 1.91 3.058 3.77 5.096 4.893a20.41 20.41 0 0 0 9.63 2.406c5.095 0 9.671-1.85 13.115-3.548 6.696-3.316 11.811-9.756 16.774-15.973 3.76-4.72 7.674-9.624 12.23-13.091a32.177 32.177 0 0 1 6.114-3.245c3.821-1.698 7.755-3.417 10.088-6.834l.113-.131v-.132c.672-6.419-1.09-12.97-2.803-19.349-2.466-9.158-5.024-18.64-.326-27.91a240.848 240.848 0 0 1 4.514-1.922 235.98 235.98 0 0 0 27.566-13.09c.948-.567 2.038-1.083 3.15-1.71Zm-31.266 13.677c-1.671.708-3.25 1.355-4.718 2.022l-.214.091-.092.192c-5.014 9.725-2.354 19.5.153 28.943 1.753 6.49 3.373 12.626 2.802 18.762-2.18 3.033-5.91 4.69-9.538 6.328a31.298 31.298 0 0 0-6.318 3.347c-4.647 3.578-8.611 8.542-12.413 13.303-4.87 6.136-9.895 12.465-16.305 15.65-5.31 2.617-13.319 5.6-21.686 1.141-1.885-1.01-3.24-2.729-4.708-4.59a26.922 26.922 0 0 0-3.964-4.275c-4.005-3.286-9.171-4.832-14.145-6.329-4.82-1.435-9.823-2.931-13.767-6.004-6.38-4.984-7.735-12.647-9.11-20.765-.5-2.618-.959-5.337-1.58-8.026v-.07a25.978 25.978 0 0 1-.112-11.556c3.984-15.446 30.317-37.707 48.283-37.707.693 0 1.376 0 2.038.091 3.353.354 7.052 2.022 10.589 3.6 4.687 2.112 9.171 4.103 12.921 3.285 8.265-1.83 12.494-9.928 16.948-18.51 5.93-11.403 12.045-23.19 28.289-21.31 13.115 1.536 30.49 8.31 36.982 17.913-.296 5.136-4.983 7.501-9.498 9.766-1.09.576-2.231 1.132-3.27 1.748-9.641 5.47-19.567 9.645-27.567 12.99v-.03Z"/><path d="M1134.67 155.109c-6.984 3.043-14.21 6.086-21.509 6.969-4.414.434-8.87.157-13.195-.822-5.908-1.075-10.983-2.029-17.073 3.125l-.142.223c-.284.578-.508 1.197-.731 1.795a6.644 6.644 0 0 1-2.03 3.338 4.204 4.204 0 0 1-5.695-1.015c-1.35-2.08-.446-4.3.508-6.664.36-.837.672-1.694.934-2.567v-.243c-1.523-12.6-7.887-23.333-14.048-33.7-5.075-8.45-10.222-17.246-12.729-26.903v-.193l-.152-.112a11.425 11.425 0 0 0-11.825-1.237l-.132.091-.092.132a21.658 21.658 0 0 0-2.233 18.9c-2.202 12.091-7.511 13.968-18.27 15.216-19.54 2.16-27.406 10.043-29.964 30.088-1.31 10.266-3.928 19.274-6.446 27.887-1.553 5.427-3.045 10.49-4.141 15.724l-.355 1.653c-2.03 9.13-3.177 14.66-11.085 20.817a72.186 72.186 0 0 1-7.968 4.98c-2.395 1.39-4.902 2.831-7.338 4.424-.66.426-1.33.872-2.03 1.329a75.235 75.235 0 0 1-10.15 5.975c-4.142 1.907-8.476 4.433-7.685 10.58.264 2.03 1.015 3.348 2.396 3.886 2.72 1.014 6.577-1.816 8.12-3.044a63.299 63.299 0 0 1 12.739-8.805c3.674-1.826 7.278-3.885 10.739-5.874.883-.527 1.797-1.014 2.68-1.521a59.124 59.124 0 0 0 13.47-9.901c9.794-10.226 11.54-25.28 13.073-38.55.264-2.393.528-4.676.842-6.867.285-1.917.508-3.936.751-6.026 1.37-11.463 2.944-24.458 10.323-29.682 3.37-2.394 7.664-2.962 13.115-1.765 8.303 1.876 23.498 7.567 29.588 13.806 3.99 4.14 6.8 8.816 9.552 13.33 3.238 5.336 6.273 10.357 11.074 14.506 12.363 10.622 29.192 21.03 49.736 7.102 8.12 4.93 11.775 13.43 15.226 21.648 3.451 8.217 6.78 15.937 14.21 19.791a60.377 60.377 0 0 0 8.395 3.044c1.279.375 2.548.77 3.786 1.187.66.223 1.3.446 1.97.71v-1.289c-.529-.172-1.016-.344-1.594-.547a92.741 92.741 0 0 0-3.817-1.197 57.168 57.168 0 0 1-8.191-3.044c-7.106-3.621-10.303-11.159-13.693-19.193-3.604-8.5-7.349-17.245-16.099-22.379l-.335-.202-.284.223c-19.915 13.756-35.73 4.27-48.6-6.777-4.68-4.007-7.674-8.988-10.86-14.202-2.741-4.585-5.604-9.292-9.694-13.522-6.943-7.101-23.346-12.6-30.198-14.132-5.694-1.278-10.434-.618-14.048 1.928-7.795 5.529-9.41 18.797-10.78 30.535-.274 2.028-.497 4.057-.781 5.975-.315 2.19-.579 4.494-.843 6.908-1.502 13.086-3.238 27.917-12.759 37.859a55.703 55.703 0 0 1-13.114 9.647c-.883.508-1.776 1.015-2.68 1.522-3.45 2.029-7.024 4.058-10.647 5.853a66.09 66.09 0 0 0-12.993 8.938c-2.192 1.866-5.177 3.59-6.933 2.9-.883-.344-1.43-1.318-1.634-2.92-.64-4.82 2.193-7.153 7.004-9.344a79.082 79.082 0 0 0 10.292-6.086 30.29 30.29 0 0 1 2.03-1.299c2.386-1.582 4.893-3.043 7.289-4.413a70.612 70.612 0 0 0 8.12-5.072c8.272-6.421 9.551-12.396 11.5-21.476l.355-1.633c1.127-5.204 2.568-10.276 4.122-15.653 2.547-8.704 5.156-17.712 6.486-28.07 2.862-21.942 12.759-27.278 28.928-29.073 11.815-1.33 17.104-3.875 19.286-16.313v-.152l-.05-.162a20.37 20.37 0 0 1 2.03-17.885 10.358 10.358 0 0 1 10.23 1.086c2.549 9.759 7.776 18.534 12.8 27.004 6.09 10.256 12.364 20.817 13.886 33.102a23.495 23.495 0 0 1-.883 2.343c-1.015 2.414-2.08 5.184-.355 7.77a5.33 5.33 0 0 0 7.359 1.31 7.922 7.922 0 0 0 2.416-3.896c.183-.542.397-1.074.64-1.593 5.622-4.677 10.21-3.855 15.996-2.79a42.118 42.118 0 0 0 13.48.842c7.531-.862 14.83-4.007 21.864-7.1 9.023-3.906 17.57-7.579 23.843-4.677.715.338 1.395.745 2.03 1.217v-1.46c-.478-.32-.98-.602-1.502-.843-6.801-3.063-15.57.72-24.828 4.667Z"/><path d="M1148.418 249.607a76.5 76.5 0 0 0-12.157 4.152c-8.297 3.383-16.127 6.593-22.358 2.32a89.59 89.59 0 0 1 2.584-10.402c2.259-7.737 4.406-15.06 1.175-20.407-1.945-3.251-5.663-5.398-11.407-6.563-10.92-2.238-26.704-6.188-37.757-14.766a56.033 56.033 0 0 1-9.117-9.53 85.08 85.08 0 0 0-7.942-8.72c-2.958-2.745-6.98-4.477-11.225-6.33a64.153 64.153 0 0 1-11.853-6.077 54.823 54.823 0 0 1-6.544-5.367c-4.67-4.264-8.044-7.363-14.183-2.279l-.131.182c-5.967 10.128-6.26 18.919-6.545 28.267-.111 2.825-.202 5.783-.466 8.841-.263 3.059-.202 6.826-.172 10.36.061 5.42.132 10.524-.952 13.025-2.35 5.368-12.582 10.381-23.442 15.708a165.943 165.943 0 0 0-17.79 9.55 99.274 99.274 0 0 0-11.497 9.348 181.982 181.982 0 0 1-3.647 3.251c-.355.314-.73.638-1.105 1.013-3.565 3.18-7.587 6.806-11.589 3.12a20.191 20.191 0 0 0-5.288-3.18l-.79-.355c-.578-.294-1.084-.577-1.57-.82-1.905-1.013-3.576-2.026-6.21-1.125l-.183.081c-7.689 5.753-13.767 9.996-22.044 12.447-6.625 1.965-15.732 3.424-18.873 2.3-4.265-1.53-7.091-5.419-7.78-10.675-.76-5.793 1.327-13.571 7.669-17.876 3.312-2.238 7.983-2.795 11.224-2.592 4.177.383 8.328 1.012 12.43 1.883 4.015.846 8.074 1.472 12.157 1.874 3.232.243 5.511-.213 7.162-1.387a5.935 5.935 0 0 0 2.209-3.039c1.438-4.05-.608-8.892-1.56-10.745a15.092 15.092 0 0 0-4.468-4.659c-.537-.405-1.064-.8-1.55-1.215l-.263-.203c-2.705-2.299-5.217-4.466-8.601-5.702a25.71 25.71 0 0 0-2.543-1.883 17.343 17.343 0 0 1-3.039-2.36l-.152-.172h-.243c-4.265-.122-8.104-.537-11.761-.952-9.918-1.104-17.77-2.026-25.823 4.213a58.89 58.89 0 0 0-7.669 7.656c-4.245 4.79-8.246 9.318-14.507 11.14l-.233.072-.121.192c-11.519 20.428-4.053 42.536 3.1 63.886 1.499 4.435 2.897 8.618 4.153 12.79-1.195 6.584-3.667 8.316-6.301 10.078a15.843 15.843 0 0 0-3.252 2.694c-5.896 6.755-7.841 12.832-5.784 17.896 2.451 6.208 10.87 10.512 23.057 11.738 3.039.303 6.3.324 9.461.324 4.468 0 8.672 0 11.61.84 9.016 2.563 16.422 4.426 23.3 5.884 4.052.841 8.105 1.59 12.055 2.208 1.186.183 2.452.314 3.668.436 2.566.155 5.105.624 7.557 1.397a27.085 27.085 0 0 0 8.226 1.793c.973.014 1.945-.081 2.897-.284a7.306 7.306 0 0 1 3.313-.131 31.69 31.69 0 0 1 7.567 4.476c1.165.82 2.25 1.59 3.313 2.279 6.524 4.051 14.355 8.649 22.946 11.343a78.55 78.55 0 0 0 17.029 3.332c5.5.486 11.59.8 17.78.8 17.677 0 36.357-2.39 45.981-9.328 12.248-8.82 21.416-12.507 46.53-12.528h.932c16.209 0 21.385.436 30.27 7.799a9.115 9.115 0 0 1 2.076 2.785 8.264 8.264 0 0 0 2.027 2.582c5.592 4 10.343 1.661 15.874-1.063a41.4 41.4 0 0 1 9.634-3.757 29.386 29.386 0 0 1 4.052-.486v-1.196a30.48 30.48 0 0 0-4.265.537 43.437 43.437 0 0 0-9.907 3.849c-5.37 2.653-9.634 4.77-14.659 1.144a6.452 6.452 0 0 1-1.661-2.208 11.272 11.272 0 0 0-2.36-3.119c-9.331-7.707-15.146-8.102-31.952-8.102-25.438 0-34.748 3.798-47.219 12.75-11.933 8.599-40.218 10.361-62.96 8.336a78.764 78.764 0 0 1-16.787-3.272c-8.439-2.673-16.209-7.18-22.662-11.251a46.254 46.254 0 0 1-3.242-2.239c-2.593-1.802-5.268-3.727-7.912-4.618a4.955 4.955 0 0 0-1.468-.213c-.819.027-1.632.13-2.432.304-.853.197-1.728.286-2.603.264a26.234 26.234 0 0 1-7.892-1.722 30.592 30.592 0 0 0-7.83-1.458 57.23 57.23 0 0 1-3.628-.446 255.292 255.292 0 0 1-11.984-2.188c-6.889-1.458-14.274-3.291-23.3-5.874-3.11-.891-7.406-.891-11.934-.891-3.14 0-6.372 0-9.35-.304-11.56-1.154-19.816-5.286-22.115-11.009-1.854-4.658 0-10.32 5.622-16.75.9-.964 1.921-1.805 3.04-2.502 2.735-1.854 5.54-3.778 6.807-11v-.252c-1.266-4.223-2.695-8.487-4.184-12.974-7.091-21.035-14.415-42.81-3.333-62.7 6.494-1.945 10.749-6.745 14.882-11.404a58.647 58.647 0 0 1 7.466-7.495c7.69-5.904 15.328-5.064 24.982-3.98 3.647.395 7.426.82 11.61.952.956.886 2.002 1.67 3.12 2.34a27.99 27.99 0 0 1 2.492 1.863l.202.091c3.202 1.185 5.684 3.282 8.338 5.54l.243.203c.506.466 1.013.86 1.59 1.286a13.765 13.765 0 0 1 4.154 4.264c.861 1.701 2.806 6.076 1.5 9.834a4.993 4.993 0 0 1-1.804 2.43c-1.398 1.013-3.475 1.368-6.392 1.145-4.04-.386-8.054-.998-12.025-1.833-4.146-.88-8.34-1.512-12.562-1.894-3.455-.243-8.398.374-11.954 2.785a20.162 20.162 0 0 0-8.185 19c.729 5.732 3.839 9.975 8.56 11.626 3.424 1.215 12.663-.172 19.623-2.279 8.408-2.47 14.547-6.785 22.337-12.548 2.097-.658 3.374.071 5.167 1.013.486.273 1.013.577 1.61.84l.8.375a20.485 20.485 0 0 1 5.066 2.988c4.802 4.395 9.644 0 13.17-3.11.375-.334.73-.668 1.013-.951a115.441 115.441 0 0 0 3.667-3.282 99.02 99.02 0 0 1 11.387-9.236 165.041 165.041 0 0 1 17.688-9.399c11.052-5.418 21.466-10.522 23.989-16.285 1.165-2.724 1.104-7.96 1.063-13.51-.05-3.515-.09-7.09.152-10.25.243-3.16.355-6.076.456-8.892.294-9.115.578-17.835 6.352-27.628 5.258-4.355 7.871-1.965 12.531 2.299a59.392 59.392 0 0 0 6.656 5.459 68.895 68.895 0 0 0 12.076 6.208c4.133 1.793 8.104 3.474 10.9 6.077a78.69 78.69 0 0 1 7.8 8.618c2.938 3.575 5.724 6.978 9.27 9.723 11.265 8.69 27.21 12.71 38.243 14.979 5.39 1.114 8.884 3.038 10.657 5.995 2.938 4.912.881 12.002-1.307 19.476a91.228 91.228 0 0 0-2.715 10.938v.354l.314.203c6.808 4.942 15.054 1.56 23.787-2.026a72.69 72.69 0 0 1 11.984-4.112 28.09 28.09 0 0 1 12.268.335v-1.216a29.184 29.184 0 0 0-12.582-.202Z"/><path d="M1076.165 273.01c-7.3 3.41-12.862 11.03-8.785 20.296v.07c4.518 7.378 11.697 14.624 19.077 14.624.88.004 1.756-.102 2.61-.315 4.016-1.014 7.43-4.059 9.569-8.595 2.962-6.261 3.142-14.146.532-19.687-4.368-9.093-15.141-10.087-23.003-6.394Zm21.426 25.583c-2.008 4.252-5.11 7.103-8.795 7.946-7.691 1.847-15.593-5.886-20.392-13.73-3.755-8.566 1.395-15.588 8.193-18.785 7.6-3.562 17.44-2.648 21.537 5.917 2.43 5.155 2.239 12.817-.543 18.652ZM1153 199.474v.35a38.085 38.085 0 0 0 8 15.176v-1.863a36.573 36.573 0 0 1-6.87-13.412c1.53-4.378 3.95-6.461 6.87-7.503V191c-3.37 1.072-6.25 3.416-8 8.474Z"/><path d="M1147.205 180.319c-12.764 12.276-6.617 29.43 3.358 41.393A58.534 58.534 0 0 0 1161 231v-1.424a57.96 57.96 0 0 1-9.583-8.642c-9.592-11.55-15.572-28.046-3.446-39.767a31.428 31.428 0 0 1 6.971-4.361c1.964-1.01 4.094-2.12 6.058-3.413V172a66.767 66.767 0 0 1-6.598 3.766c-2.828 1.464-5.479 2.857-7.197 4.553ZM352.462 100.87l.151.13h.243c5.246-.502 8.825-4.205 12.282-7.798 1.192-1.224 2.426-2.499 3.71-3.593 1.283-1.094 2.557-2.007 4.103-3.01 4.923-3.423 11.029-7.668 11.049-14.703 0-8.41-9.29-15.415-18.306-17.342-8.451-1.816-15.163.893-18.105 7.246l-.05.17c-.111 1.406-.293 2.921-.445 4.477-1.344 12.625-2.972 28.37 5.368 34.423Zm-4.195-34.343c.151-1.516.303-3.01.444-4.366 2.67-5.75 8.906-8.189 16.76-6.503 8.36 1.776 17.367 8.5 17.336 16.208 0 6.423-5.6 10.297-10.523 13.739a51.09 51.09 0 0 0-4.205 3.131c-1.324 1.114-2.567 2.429-3.77 3.653-3.265 3.392-6.672 6.885-11.342 7.427-7.632-5.8-5.934-21.658-4.7-33.29ZM498.82 284.242c-3.369.491-7.868 2.858-13.547 5.881a152.928 152.928 0 0 1-17.304 8.198 97.885 97.885 0 0 1-9.425 2.859c-7.197 1.926-13.986 3.74-16.5 8.546-1.425 2.705-1.395 6.148.112 10.4l.061.175.183.113A21.457 21.457 0 0 0 454.014 324c6.199 0 12.021-2.838 18.037-5.749a74.522 74.522 0 0 1 12.906-5.328 73.526 73.526 0 0 1 11.461-1.916c6.107-.718 11.889-1.414 15.085-4.007 4.977-4.099 6.779-10.042 4.56-15.165-1.985-4.52-7.532-8.926-17.243-7.593Zm11.93 21.774c-2.932 2.419-8.53 3.075-14.464 3.761a81.143 81.143 0 0 0-11.655 1.947 78.02 78.02 0 0 0-13.11 5.41c-9.639 4.673-17.945 8.7-28.327 2.347-1.282-3.873-1.354-6.886-.081-9.222 2.26-4.345 8.814-6.087 15.746-7.942 3.155-.85 6.423-1.742 9.527-2.91a144.24 144.24 0 0 0 17.416-8.197c5.374-2.839 10.026-5.278 13.232-5.739 9.039-1.28 14.169 2.695 15.97 6.835 1.965 4.6.306 10.011-4.254 13.72v-.01ZM316.373 98h.294c4.526-.113 12.261-1.97 13.284-13.638.77-8.979-7.655-23.9-17.334-26.824-5.67-1.724-14.358.821-19.795 5.798-3.756 3.397-5.407 7.563-4.637 11.709C289.683 87.297 305.084 98 316.373 98Zm-22.751-33.792a24.122 24.122 0 0 1 15.117-6.023c1.202-.016 2.4.15 3.554.492 9.011 2.73 17.213 17.199 16.484 25.572-.71 7.974-4.992 12.407-12.15 12.56h-.284c-10.834 0-25.597-10.261-27.004-21.939-.89-4.771 1.853-8.425 4.283-10.662Zm95.208 183.157a60.849 60.849 0 0 1-3.857-11.456c-1.35-5.07-2.874-10.929-5.91-16.556-3.035-5.626-7.604-10.888-12.03-15.998-1.493-1.744-3.047-3.558-4.57-5.353-1.705-2.027-3.37-4.136-5.005-6.174a177.701 177.701 0 0 0-12.315-14.335l-.6-.598c-9.777-9.784-23.199-23.186-33.19-19.161-5.167 2.027-8.508 8.718-11.797 15.156-1.015 2.099-2.03 4.116-3.117 5.88a118.833 118.833 0 0 1-3.503 5.384c-3.95 5.687-7.665 11.06-5.076 17.234v.061c3.34 6.083 8.305 6.448 13.554 6.864 3.218.274 6.569.557 9.818 2.15 7.249 3.537 10.904 11.303 14.762 19.485 3.046 6.468 6.163 13.18 11.25 17.964 3.127 2.991 7.38 4.867 11.503 6.692a48.757 48.757 0 0 1 10.457 5.657 44.865 44.865 0 0 1 6.986 7.654 36.203 36.203 0 0 0 6.579 7.148c5.38 3.984 12.58 6.934 19.544 6.934 3.726.064 7.398-.9 10.61-2.788l.183-.182c5.157-7.209-1.198-14.802-7.34-22.193-2.773-3.295-5.382-6.417-6.935-9.469Zm13.362 30.87c-8.884 5.283-20.803 1.765-28.743-4.125a35.756 35.756 0 0 1-6.325-6.894 44.632 44.632 0 0 0-7.209-7.858 47.923 47.923 0 0 0-10.721-5.84c-4.214-1.865-8.174-3.629-11.169-6.437-4.914-4.674-8-11.243-10.965-17.62-3.97-8.405-7.696-16.322-15.31-20.063-3.463-1.683-6.915-1.967-10.265-2.261-5.077-.416-9.554-.77-12.6-6.215-2.284-5.596 1.107-10.442 5.006-16.11 1.218-1.743 2.477-3.538 3.584-5.413 1.106-1.876 2.08-3.853 3.147-6.002 3.147-6.215 6.427-12.652 11.168-14.579 9.26-3.71 22.337 9.368 31.931 18.898l.569.618a169.953 169.953 0 0 1 12.183 14.194c1.645 2.027 3.33 4.156 5.077 6.204a296.337 296.337 0 0 0 4.579 5.373c4.62 5.282 8.934 10.311 11.879 15.775 2.944 5.465 4.436 11.01 5.827 16.303a60.393 60.393 0 0 0 3.94 11.76 54.75 54.75 0 0 0 7.107 9.692c5.777 6.965 11.808 14.153 7.31 20.6Z"/><path d="M357.48 210.87c-.681-.9-1.361-1.831-2.051-2.773-9.21-12.57-20.652-28.216-37.223-29.097h-.12l-.16.07a5.037 5.037 0 0 0-2.624 2.874 5.116 5.116 0 0 0 .184 3.908l.07.131.1.081c7.64 5.729 10.76 16.265 13.771 26.396 2.56 8.774 5.24 17.853 10.85 23.905 5.611 6.052 15.382 9.635 26.873 9.635h2.46l.16-.294c5.76-12.074-.62-20.008-8-29.178-1.41-1.903-2.89-3.734-4.29-5.657Zm11.4 33.885c-11.9.375-22.002-2.955-27.742-9.19-5.41-5.87-8.05-14.796-10.61-23.43-3.001-10.272-6.171-20.92-14.052-26.93-.849-1.91-.036-4.157 1.83-5.061 15.921.93 27.152 16.254 36.193 28.601l2.05 2.783c1.44 1.944 2.92 3.806 4.36 5.587 7.04 8.846 13.131 16.436 7.97 27.64Zm394.893 15.132c-2.23-.374-4.802.304-7.526 1.011a31.217 31.217 0 0 1-6.195 1.214c-6.276.283-11.4-1.011-16.355-2.235-6.85-1.739-12.773-3.215-19.623.111-6.205 3.034-13.247 9.556-19.462 15.36-1.12 1.061-2.24 2.102-3.33 3.033-1.826 1.698-3.743 3.397-5.7 5.156-8.869 7.928-18.07 16.178-21.51 23.175-2.553 5.228-2.402 9.95-1.383 15.44.505 4.044 2.28 7.877 4.197 11.961a64.457 64.457 0 0 1 3.905 9.495 55.397 55.397 0 0 1 1.735 9.95c.838 7.694 1.635 15.024 9.827 19.059a15.337 15.337 0 0 0 6.86 1.375c9.515 0 22.53-5.339 30.057-9.687 3.612-2.082 7.779-4.853 12.177-7.795 8.304-5.582 17.747-11.87 27.302-16.087l3.35-1.406c5.266-2.123 11.824-4.792 15.749-9.251 9.262-10.506 11.946-32.983 5.963-50.06-3.925-11.194-11.028-18.231-20.038-19.819Zm13.167 69.17c-3.723 4.217-10.09 6.836-15.285 8.94-1.211.505-2.351.95-3.39 1.415-9.646 4.257-19.17 10.586-27.473 16.178-4.38 2.932-8.526 5.723-12.107 7.765-10.09 5.834-27.897 12.224-35.848 8.281-7.597-3.771-8.364-10.748-9.16-18.12a54.1 54.1 0 0 0-1.786-10.191 70.269 70.269 0 0 0-3.935-9.646c-1.897-3.994-3.663-7.766-4.147-11.608-1.009-5.298-1.12-9.818 1.302-14.762 3.319-6.775 12.44-14.934 21.248-22.811 1.937-1.77 3.874-3.468 5.7-5.167a200.86 200.86 0 0 1 3.33-3.033c6.164-5.753 13.116-12.265 19.169-15.167a17.806 17.806 0 0 1 8.071-1.85c3.65.159 7.267.773 10.766 1.83 4.832 1.193 10.27 2.558 16.687 2.244a31.65 31.65 0 0 0 6.457-1.233c2.593-.657 5.045-1.315 7.063-1.011 8.586 1.506 15.346 8.26 19.17 19.05 5.77 16.683 3.198 38.634-5.832 48.897Z"/><path d="M718.736 277.702c-12.096 3.288-28.88 14.076-36.168 27.639-3.74 7.038-4.546 13.824-2.389 20.3 1.895 4.262 2.55 9.048 3.165 13.713.797 6.143 1.623 12.508 5.393 17.736l.111.13.171.06A30.665 30.665 0 0 0 699.1 359c13.79 0 26.209-9.37 38.366-18.48 5.735-4.323 11.703-8.797 17.62-12.065 1.754-.955 3.629-1.9 5.433-2.785 3.891-1.91 7.258-3.569 8.86-5.419 8.317-9.541 8.911-29.921 1.15-37.582-6.381-6.244-38.497-8.567-51.792-4.967Zm49.786 41.795c-1.452 1.67-4.89 3.358-8.508 5.138-1.814.895-3.68 1.82-5.484 2.825-5.987 3.298-11.965 7.812-17.73 12.186-14.718 11.06-29.939 22.46-47.206 16.63-3.508-4.937-4.274-10.799-5.04-17.012-.625-4.736-1.28-9.632-3.216-14.016-2.016-6.143-1.28-12.658 2.309-19.354 7.126-13.272 23.587-23.869 35.442-27.076 12.71-3.449 44.635-1.277 50.683 4.675 7.348 7.31 6.733 26.835-1.25 36.004Zm-215.404-57.322c.436-1.195 1.074-2.613 1.783-4.132 3.302-7.21 7.83-17.094 2.968-23.828-2.35-3.291-10.97-7.696-17.948-5.063-3.454 1.306-6.35 4.75-9.116 8.101a37.725 37.725 0 0 1-5.52 5.742 38.31 38.31 0 0 1-7.657 3.889 45.45 45.45 0 0 0-9.46 4.911 69.72 69.72 0 0 0-8.347 7.666 51.653 51.653 0 0 1-8.315 7.423c-10.696 7.028-19.761 9.722-28.492 8.486-3.93-.547-8.336-2.653-12.56-4.658-2.43-1.154-4.942-2.319-7.363-3.25-2.137-.8-4.325-1.459-6.472-2.127-4.69-1.428-9.116-2.785-13.066-5.428-6.25-4.264-15.78-14.877-19.802-21.115-2.471-3.878-4.487-8.901-6.634-14.177-2.492-6.208-5.064-12.638-8.883-18.603-6.411-10.056-15.193-18.876-23.742-27.342-8.842-8.84-17.218-17.216-22.505-26.462a70.881 70.881 0 0 1-3.86-8.486c-2.197-5.458-4.476-11.089-8.335-14.917-3.039-2.977-6.564-4.506-9.997-5.964a38.168 38.168 0 0 1-6.756-3.352 43.55 43.55 0 0 1-5.378-4.648c-3.89-3.757-7.89-7.646-14.96-8.841h-.203c-9.177 1.863-11.962 6.208-13.238 9.307-2.654 6.298 1.063 12.911 4.618 19.321 2.502 4.507 4.842 8.72 5.156 12.75.72 10.32-5.115 18.826-11.304 27.869-7.262 10.623-14.767 21.59-10.473 35.646.395 4.243 2.614 8 4.953 11.96a52.21 52.21 0 0 1 4.64 9.205 70.431 70.431 0 0 1 2.339 9.377c1.57 7.93 2.897 14.765 12.56 18.826 4.932 2.096 9.926 1.013 14.787 0 3.272-.688 6.371-1.367 9.39-1.114 6.39.496 17.948 6.37 24.308 11.342 3.1 2.41 6.017 5.995 9.116 9.732 3.495 4.304 7.09 8.699 11.496 12.081a54.91 54.91 0 0 0 6.807 4.162c4.152 2.249 8.427 4.568 10.564 7.687 3.23 4.709 4.112 11.14 2.593 19.008-1.246 6.36-4.204 13.326-7.09 20.091-4.052 9.438-8.194 19.241-8.103 28.082V372l.658-.091c5.875-.638 11.213-2.937 16.358-5.175 2.613-1.124 5.328-2.299 8.103-3.27a130.568 130.568 0 0 1 14.879-3.758 130.68 130.68 0 0 0 15.557-3.95 59.936 59.936 0 0 0 10.484-5.306 62.002 62.002 0 0 1 10.128-5.215 69.474 69.474 0 0 1 20.51-3.646 60.013 60.013 0 0 1 9.461.638c4.073.651 8.212.777 12.316.375 4.335-.618 8.154-2.41 11.82-4.172a43.78 43.78 0 0 1 7.921-3.21c3.12-.79 6.807-.618 10.342-.416 5.064.264 9.946.527 13.48-1.883 6.726-4.618 14.18-29.672 17.422-40.355l.132-.487c1.154-3.878 2.025-7.848 2.856-11.686a117.453 117.453 0 0 1 5.074-18.218Zm-9.115 29.48-.112.435c-2.917 9.68-10.594 35.362-16.955 39.717-3.231 2.207-7.85 1.944-12.752 1.701-3.626-.192-7.414-.395-10.706.466a44.784 44.784 0 0 0-8.103 3.27c-3.596 1.722-7.313 3.474-11.496 4.052-4 .394-8.035.265-12.002-.385a62.16 62.16 0 0 0-9.653-.638 70.467 70.467 0 0 0-20.845 3.716 62.731 62.731 0 0 0-10.321 5.307 55.023 55.023 0 0 1-10.28 5.185 126.151 126.151 0 0 1-15.386 3.939 123.7 123.7 0 0 0-15.03 3.798c-2.827 1.012-5.572 2.146-8.205 3.3-5.064 2.209-9.946 4.264-15.386 5.064.092-8.466 4.113-17.853 8.002-26.967 2.897-6.826 5.885-13.854 7.161-20.305 1.57-8.243.618-14.937-2.806-19.929-2.279-3.342-6.674-5.732-10.939-8.05a48.042 48.042 0 0 1-6.654-4.052c-4.285-3.3-7.87-7.655-11.324-11.888-3.11-3.808-6.077-7.433-9.278-9.935-6.634-5.164-18.231-11.068-24.957-11.615-.445 0-.922-.05-1.367-.05a40.31 40.31 0 0 0-8.377 1.214c-4.669 1.013-9.46 2.026-14.089.112-9.055-3.828-10.27-10.076-11.84-17.965a64.508 64.508 0 0 0-2.39-9.55 53.02 53.02 0 0 0-4.73-9.438c-2.3-3.848-4.447-7.483-4.801-11.514v-.101c-4.173-13.53 3.19-24.304 10.33-34.705 6.007-8.8 12.246-17.894 11.466-28.618-.324-4.294-2.846-8.82-5.277-13.215-3.433-6.168-6.988-12.558-4.578-18.32 1.277-3.038 3.85-6.835 12.266-8.577 6.634 1.144 10.504 4.881 14.241 8.506a44.716 44.716 0 0 0 5.52 4.78 41.652 41.652 0 0 0 6.948 3.484c3.333 1.418 6.787 2.876 9.653 5.701 3.667 3.656 5.905 9.175 8.103 14.522a72.35 72.35 0 0 0 3.91 8.638c5.388 9.378 13.815 17.793 22.718 26.704 8.468 8.466 17.219 17.216 23.57 27.18 3.737 5.854 6.3 12.244 8.771 18.411 2.168 5.347 4.203 10.39 6.766 14.37 4.051 6.34 13.724 17.104 20.115 21.428 4.052 2.765 8.802 4.223 13.39 5.641 2.107.618 4.275 1.276 6.392 2.076 2.39.901 4.892 2.076 7.272 3.23 4.315 2.026 8.772 4.152 12.894 4.73 9.035 1.276 18.343-1.459 29.302-8.669a51.43 51.43 0 0 0 8.508-7.575 65.082 65.082 0 0 1 8.225-7.534 44.741 44.741 0 0 1 9.217-4.78 41.47 41.47 0 0 0 7.9-4.05 35.852 35.852 0 0 0 5.713-5.915c2.724-3.23 5.51-6.542 8.67-7.736 6.37-2.41 14.453 1.7 16.58 4.668 4.447 6.187.092 15.686-3.038 22.623-.71 1.53-1.378 2.967-1.834 4.203a118.466 118.466 0 0 0-5.064 18.228c-.972 3.889-1.833 7.787-2.998 11.676h-.03Z"/><path d="M520.533 272.199c-8.512-3.735-19.923 1.14-29.965 5.424-2.564 1.078-4.955 2.106-7.235 2.971-12.231 4.529-24.037 8.375-34.454 5.312-2.969-.865-5.796-2.707-8.826-4.67a61.52 61.52 0 0 0-6.394-3.745 41.53 41.53 0 0 0-5.786-2.23 28.844 28.844 0 0 1-5.98-2.503c-8.339-5.22-18.746-16.058-25.272-26.316-3.82-5.953-6.13-12.211-8.583-18.795-3.384-9.16-6.88-18.583-14.724-27.802-4.864-5.75-10.64-11.764-16.75-18.165-5.067-5.312-10.326-10.818-15.079-16.17a108.444 108.444 0 0 1-7.387-9.73c-5.503-7.835-10.68-15.264-20.267-16.78h-.162c-10.134 1.394-14.704 12.303-19.142 22.866a99.5 99.5 0 0 1-5.888 12.436c-1.57 2.554-3.364 4.935-5.067 7.245-5.198 6.951-10.133 13.505-8.106 23.742.243 10.746 10.133 13.168 19.72 15.478 5.005 1.221 10.133 2.463 13.7 4.905 3.567 2.443 6.343 7.215 9.414 12.354 3.232 5.374 6.92 11.46 11.856 15.947a63.965 63.965 0 0 0 11.603 7.815 56.17 56.17 0 0 1 9.606 6.37 43.504 43.504 0 0 1 4.57 5.333c2.686 3.42 5.685 7.276 9.647 10.085 4.246 3.053 9.262 5.088 14.126 7.123 6.466 2.687 12.525 5.241 14.998 9.444 3.162 5.373 3.253 13.81.273 25.024a40.173 40.173 0 0 1-2.705 6.757c-2.169 4.722-4.449 9.617-2.787 15.102l.071.244.243.112a14.795 14.795 0 0 0 6.435 1.618c4.813 0 8.735-2.91 12.758-5.933a41.607 41.607 0 0 1 9.82-6.014c5.775-2.27 13.355-2.33 21.38-2.422 3.831-.05 7.814-.071 11.573-.377 2.027-.152 4.135-.285 6.232-.427 8.472-.58 17.227-1.15 25.08-3.307a84.328 84.328 0 0 0 8.229-2.951 83.63 83.63 0 0 1 9.12-3.267 70.794 70.794 0 0 1 7.012-1.486c4.419-.794 8.573-1.557 11.563-3.775 8.45-6.28 14.51-26.001 10.964-35.76-2.199-5.556-5.32-9.26-9.434-11.082Zm-2.392 45.905c-2.786 2.036-6.81 2.779-11.055 3.552-2.32.427-4.733.845-7.094 1.516a79.297 79.297 0 0 0-9.2 3.308 80.65 80.65 0 0 1-8.108 2.91c-7.752 2.096-16.507 2.707-24.979 3.287-2.077.132-4.154.244-6.232.417-3.739.316-7.67.336-11.48.377-8.158.091-15.85.152-21.848 2.493a44.187 44.187 0 0 0-10.063 6.106c-5.553 4.182-10.366 7.775-17.733 4.315-1.399-4.916.658-9.332 2.806-13.993a41.062 41.062 0 0 0 2.747-6.93c3.04-11.55 2.938-20.261-.375-25.94-2.655-4.559-8.938-7.174-15.575-9.932-4.804-2.035-9.729-4.07-13.883-7.011-3.81-2.717-6.79-6.513-9.404-9.861a42.395 42.395 0 0 0-4.712-5.465 57.74 57.74 0 0 0-9.769-6.492 64.267 64.267 0 0 1-11.39-7.633c-4.823-4.376-8.43-10.37-11.653-15.651-3.223-5.282-6.151-10.176-9.738-12.71-3.588-2.534-8.999-3.857-14.106-5.089-9.576-2.31-18.625-4.508-18.818-14.389v-.081c-1.925-9.78 2.868-16.15 7.914-22.887 1.723-2.31 3.537-4.722 5.128-7.327a97.988 97.988 0 0 0 6.05-12.68c4.266-10.176 8.714-20.77 18.108-22.123 9.12 1.465 13.883 8.324 19.436 16.282a115.338 115.338 0 0 0 7.478 9.81c4.773 5.383 10.012 10.909 15.13 16.221 6.08 6.39 11.805 12.395 16.69 18.114 7.7 9.067 11.146 18.389 14.51 27.476 2.473 6.676 4.794 12.965 8.675 19.03 6.647 10.39 17.176 21.37 25.668 26.693a28.61 28.61 0 0 0 6.242 2.605 45.684 45.684 0 0 1 5.614 2.147 61.97 61.97 0 0 1 6.282 3.735c3.111 1.974 6.01 3.857 9.12 4.773 10.793 3.175 22.841-.713 35.224-5.333 2.3-.885 4.712-1.903 7.307-3.002 9.84-4.192 20.966-8.924 29.032-5.414 3.87 1.69 6.678 5.089 8.623 10.421 3.365 9.322-2.452 28.29-10.589 34.355h.02Z"/></g></svg>